<mxfile host="app.diagrams.net" agent="Mozilla/5.0 (X11; Linux x86_64) AppleWebKit/537.36 (KHTML, like Gecko) Chrome/138.0.0.0 Safari/537.36" version="28.0.6">
  <diagram name="Page-1" id="jCE5eV42eoHRl1liQp6B">
    <mxGraphModel dx="1149" dy="718" grid="1" gridSize="10" guides="1" tooltips="1" connect="1" arrows="1" fold="1" page="1" pageScale="1" pageWidth="850" pageHeight="1100" math="0" shadow="0">
      <root>
        <mxCell id="0" />
        <mxCell id="1" parent="0" />
        <mxCell id="SwZNiAvCX6HAkOTveVuw-344" value="" style="shape=card;whiteSpace=wrap;html=1;size=20;" vertex="1" parent="1">
          <mxGeometry x="448.17" y="330.84000000000003" width="43.66" height="80.16" as="geometry" />
        </mxCell>
        <mxCell id="SwZNiAvCX6HAkOTveVuw-343" value="" style="shape=card;whiteSpace=wrap;html=1;size=20;" vertex="1" parent="1">
          <mxGeometry x="390" y="330.29999999999995" width="43.66" height="80.16" as="geometry" />
        </mxCell>
        <mxCell id="SwZNiAvCX6HAkOTveVuw-12" value="Image2Nonogram&lt;div&gt;Service&lt;/div&gt;" style="rounded=1;whiteSpace=wrap;html=1;fillColor=#dae8fc;strokeColor=#6c8ebf;" vertex="1" parent="1">
          <mxGeometry x="170" y="170" width="120" height="60" as="geometry" />
        </mxCell>
        <mxCell id="SwZNiAvCX6HAkOTveVuw-13" value="" style="curved=1;endArrow=classic;html=1;rounded=0;entryX=0;entryY=0.5;entryDx=0;entryDy=0;" edge="1" parent="1" target="SwZNiAvCX6HAkOTveVuw-12">
          <mxGeometry width="50" height="50" relative="1" as="geometry">
            <mxPoint x="100" y="310" as="sourcePoint" />
            <mxPoint x="50" y="220" as="targetPoint" />
            <Array as="points">
              <mxPoint x="100" y="260" />
              <mxPoint x="140" y="200" />
            </Array>
          </mxGeometry>
        </mxCell>
        <mxCell id="SwZNiAvCX6HAkOTveVuw-15" value="" style="shape=actor;whiteSpace=wrap;html=1;" vertex="1" parent="1">
          <mxGeometry x="60" y="310" width="40" height="60" as="geometry" />
        </mxCell>
        <mxCell id="SwZNiAvCX6HAkOTveVuw-81" value="" style="group" vertex="1" connectable="0" parent="1">
          <mxGeometry x="221" y="263.99666666666667" width="26.335000000000036" height="40.02166666666665" as="geometry" />
        </mxCell>
        <mxCell id="SwZNiAvCX6HAkOTveVuw-82" value="" style="group;movable=1;resizable=1;rotatable=1;deletable=1;editable=1;locked=0;connectable=1;" vertex="1" connectable="0" parent="SwZNiAvCX6HAkOTveVuw-81">
          <mxGeometry y="0.0033333333333303017" width="13.33" height="20" as="geometry" />
        </mxCell>
        <mxCell id="SwZNiAvCX6HAkOTveVuw-83" value="" style="rounded=0;whiteSpace=wrap;html=1;rotation=90;movable=1;resizable=1;rotatable=1;deletable=1;editable=1;locked=0;connectable=1;" vertex="1" parent="SwZNiAvCX6HAkOTveVuw-82">
          <mxGeometry x="-3.3325" y="3.333333333333333" width="19.995" height="13.333333333333332" as="geometry" />
        </mxCell>
        <mxCell id="SwZNiAvCX6HAkOTveVuw-84" value="" style="whiteSpace=wrap;html=1;aspect=fixed;fillColor=#000000;movable=0;resizable=0;rotatable=0;deletable=0;editable=0;locked=1;connectable=0;" vertex="1" parent="SwZNiAvCX6HAkOTveVuw-82">
          <mxGeometry width="6.665" height="6.665" as="geometry" />
        </mxCell>
        <mxCell id="SwZNiAvCX6HAkOTveVuw-85" value="" style="whiteSpace=wrap;html=1;aspect=fixed;fillColor=#000000;movable=1;resizable=1;rotatable=1;deletable=1;editable=1;locked=0;connectable=1;" vertex="1" parent="SwZNiAvCX6HAkOTveVuw-82">
          <mxGeometry x="6.665" y="6.666666666666666" width="6.665" height="6.665" as="geometry" />
        </mxCell>
        <mxCell id="SwZNiAvCX6HAkOTveVuw-86" value="" style="whiteSpace=wrap;html=1;aspect=fixed;fillColor=#000000;movable=0;resizable=0;rotatable=0;deletable=0;editable=0;locked=1;connectable=0;" vertex="1" parent="SwZNiAvCX6HAkOTveVuw-82">
          <mxGeometry y="13.333333333333332" width="6.665" height="6.665" as="geometry" />
        </mxCell>
        <mxCell id="SwZNiAvCX6HAkOTveVuw-87" value="" style="rounded=0;whiteSpace=wrap;html=1;rotation=90;movable=1;resizable=1;rotatable=1;deletable=1;editable=1;locked=0;connectable=1;" vertex="1" parent="SwZNiAvCX6HAkOTveVuw-81">
          <mxGeometry x="9.66749999999999" y="3.3366666666666447" width="19.995" height="13.333333333333332" as="geometry" />
        </mxCell>
        <mxCell id="SwZNiAvCX6HAkOTveVuw-88" value="" style="whiteSpace=wrap;html=1;aspect=fixed;fillColor=#000000;movable=1;resizable=1;rotatable=1;deletable=1;editable=1;locked=0;connectable=1;" vertex="1" parent="SwZNiAvCX6HAkOTveVuw-81">
          <mxGeometry x="19.670000000000016" y="13.343333333333305" width="6.665" height="6.665" as="geometry" />
        </mxCell>
        <mxCell id="SwZNiAvCX6HAkOTveVuw-89" value="" style="whiteSpace=wrap;html=1;aspect=fixed;fillColor=#000000;movable=1;resizable=1;rotatable=1;deletable=1;editable=1;locked=0;connectable=1;" vertex="1" parent="SwZNiAvCX6HAkOTveVuw-81">
          <mxGeometry x="19.66500000000002" width="6.665" height="6.665" as="geometry" />
        </mxCell>
        <mxCell id="SwZNiAvCX6HAkOTveVuw-90" value="" style="whiteSpace=wrap;html=1;aspect=fixed;fillColor=#000000;movable=1;resizable=1;rotatable=1;deletable=1;editable=1;locked=0;connectable=1;" vertex="1" parent="SwZNiAvCX6HAkOTveVuw-81">
          <mxGeometry x="13" y="13.346666666666636" width="6.665" height="6.665" as="geometry" />
        </mxCell>
        <mxCell id="SwZNiAvCX6HAkOTveVuw-91" value="" style="whiteSpace=wrap;html=1;aspect=fixed;fillColor=none;movable=1;resizable=1;rotatable=1;deletable=1;editable=1;locked=0;connectable=1;" vertex="1" parent="SwZNiAvCX6HAkOTveVuw-81">
          <mxGeometry x="13.330000000000013" y="6.683333333333337" width="6.665" height="6.665" as="geometry" />
        </mxCell>
        <mxCell id="SwZNiAvCX6HAkOTveVuw-92" value="" style="whiteSpace=wrap;html=1;aspect=fixed;fillColor=#000000;movable=1;resizable=1;rotatable=1;deletable=1;editable=1;locked=0;connectable=1;" vertex="1" parent="SwZNiAvCX6HAkOTveVuw-81">
          <mxGeometry x="19.670000000000016" y="6.663333333333355" width="6.665" height="6.665" as="geometry" />
        </mxCell>
        <mxCell id="SwZNiAvCX6HAkOTveVuw-93" value="" style="group;movable=1;resizable=1;rotatable=1;deletable=1;editable=1;locked=0;connectable=1;" vertex="1" connectable="0" parent="SwZNiAvCX6HAkOTveVuw-81">
          <mxGeometry y="20.01666666666665" width="13.33" height="20" as="geometry" />
        </mxCell>
        <mxCell id="SwZNiAvCX6HAkOTveVuw-94" value="" style="rounded=0;whiteSpace=wrap;html=1;rotation=90;movable=1;resizable=1;rotatable=1;deletable=1;editable=1;locked=0;connectable=1;" vertex="1" parent="SwZNiAvCX6HAkOTveVuw-93">
          <mxGeometry x="-3.3325" y="3.333333333333333" width="19.995" height="13.333333333333332" as="geometry" />
        </mxCell>
        <mxCell id="SwZNiAvCX6HAkOTveVuw-95" value="" style="whiteSpace=wrap;html=1;aspect=fixed;fillColor=#000000;movable=0;resizable=0;rotatable=0;deletable=0;editable=0;locked=1;connectable=0;" vertex="1" parent="SwZNiAvCX6HAkOTveVuw-93">
          <mxGeometry width="6.665" height="6.665" as="geometry" />
        </mxCell>
        <mxCell id="SwZNiAvCX6HAkOTveVuw-96" value="" style="whiteSpace=wrap;html=1;aspect=fixed;fillColor=#000000;movable=1;resizable=1;rotatable=1;deletable=1;editable=1;locked=0;connectable=1;" vertex="1" parent="SwZNiAvCX6HAkOTveVuw-93">
          <mxGeometry x="6.665" y="6.666666666666666" width="6.665" height="6.665" as="geometry" />
        </mxCell>
        <mxCell id="SwZNiAvCX6HAkOTveVuw-97" value="" style="whiteSpace=wrap;html=1;aspect=fixed;fillColor=#000000;movable=0;resizable=0;rotatable=0;deletable=0;editable=0;locked=1;connectable=0;" vertex="1" parent="SwZNiAvCX6HAkOTveVuw-93">
          <mxGeometry y="13.333333333333332" width="6.665" height="6.665" as="geometry" />
        </mxCell>
        <mxCell id="SwZNiAvCX6HAkOTveVuw-98" value="" style="rounded=0;whiteSpace=wrap;html=1;rotation=90;movable=1;resizable=1;rotatable=1;deletable=1;editable=1;locked=0;connectable=1;" vertex="1" parent="SwZNiAvCX6HAkOTveVuw-81">
          <mxGeometry x="9.667500000000018" y="23.349999999999966" width="19.995" height="13.333333333333332" as="geometry" />
        </mxCell>
        <mxCell id="SwZNiAvCX6HAkOTveVuw-99" value="" style="whiteSpace=wrap;html=1;aspect=fixed;fillColor=#000000;movable=1;resizable=1;rotatable=1;deletable=1;editable=1;locked=0;connectable=1;" vertex="1" parent="SwZNiAvCX6HAkOTveVuw-81">
          <mxGeometry x="19.670000000000016" y="33.35666666666663" width="6.665" height="6.665" as="geometry" />
        </mxCell>
        <mxCell id="SwZNiAvCX6HAkOTveVuw-100" value="" style="whiteSpace=wrap;html=1;aspect=fixed;fillColor=none;movable=1;resizable=1;rotatable=1;deletable=1;editable=1;locked=0;connectable=1;" vertex="1" parent="SwZNiAvCX6HAkOTveVuw-81">
          <mxGeometry x="13.330000000000041" y="26.69666666666666" width="6.665" height="6.665" as="geometry" />
        </mxCell>
        <mxCell id="SwZNiAvCX6HAkOTveVuw-101" value="" style="whiteSpace=wrap;html=1;aspect=fixed;fillColor=#000000;movable=1;resizable=1;rotatable=1;deletable=1;editable=1;locked=0;connectable=1;" vertex="1" parent="SwZNiAvCX6HAkOTveVuw-81">
          <mxGeometry x="19.670000000000016" y="26.676666666666677" width="6.665" height="6.665" as="geometry" />
        </mxCell>
        <mxCell id="SwZNiAvCX6HAkOTveVuw-102" value="" style="whiteSpace=wrap;html=1;aspect=fixed;fillColor=none;movable=1;resizable=1;rotatable=1;deletable=1;editable=1;locked=0;connectable=1;" vertex="1" parent="SwZNiAvCX6HAkOTveVuw-81">
          <mxGeometry x="19.670000000000016" y="20.01333333333332" width="6.665" height="6.665" as="geometry" />
        </mxCell>
        <mxCell id="SwZNiAvCX6HAkOTveVuw-103" value="" style="curved=1;endArrow=classic;html=1;rounded=0;" edge="1" parent="1">
          <mxGeometry width="50" height="50" relative="1" as="geometry">
            <mxPoint x="220" y="240" as="sourcePoint" />
            <mxPoint x="120" y="320" as="targetPoint" />
            <Array as="points">
              <mxPoint x="220" y="270" />
              <mxPoint x="170" y="320" />
            </Array>
          </mxGeometry>
        </mxCell>
        <mxCell id="SwZNiAvCX6HAkOTveVuw-104" value="Nonogram Division&lt;div&gt;Service&lt;/div&gt;" style="rounded=1;whiteSpace=wrap;html=1;fillColor=#dae8fc;strokeColor=#6c8ebf;" vertex="1" parent="1">
          <mxGeometry x="174.17000000000002" y="550" width="120" height="60" as="geometry" />
        </mxCell>
        <mxCell id="SwZNiAvCX6HAkOTveVuw-105" value="" style="endArrow=classic;html=1;rounded=0;" edge="1" parent="1">
          <mxGeometry width="50" height="50" relative="1" as="geometry">
            <mxPoint x="100" y="390" as="sourcePoint" />
            <mxPoint x="170" y="550" as="targetPoint" />
          </mxGeometry>
        </mxCell>
        <mxCell id="SwZNiAvCX6HAkOTveVuw-152" value="" style="group" vertex="1" connectable="0" parent="1">
          <mxGeometry x="92" y="503" width="26.335000000000036" height="40.02166666666665" as="geometry" />
        </mxCell>
        <mxCell id="SwZNiAvCX6HAkOTveVuw-153" value="" style="group;movable=1;resizable=1;rotatable=1;deletable=1;editable=1;locked=0;connectable=1;" vertex="1" connectable="0" parent="SwZNiAvCX6HAkOTveVuw-152">
          <mxGeometry y="0.0033333333333303017" width="13.33" height="20" as="geometry" />
        </mxCell>
        <mxCell id="SwZNiAvCX6HAkOTveVuw-154" value="" style="rounded=0;whiteSpace=wrap;html=1;rotation=90;movable=1;resizable=1;rotatable=1;deletable=1;editable=1;locked=0;connectable=1;" vertex="1" parent="SwZNiAvCX6HAkOTveVuw-153">
          <mxGeometry x="-3.3325" y="3.333333333333333" width="19.995" height="13.333333333333332" as="geometry" />
        </mxCell>
        <mxCell id="SwZNiAvCX6HAkOTveVuw-155" value="" style="whiteSpace=wrap;html=1;aspect=fixed;fillColor=#000000;movable=0;resizable=0;rotatable=0;deletable=0;editable=0;locked=1;connectable=0;" vertex="1" parent="SwZNiAvCX6HAkOTveVuw-153">
          <mxGeometry width="6.665" height="6.665" as="geometry" />
        </mxCell>
        <mxCell id="SwZNiAvCX6HAkOTveVuw-156" value="" style="whiteSpace=wrap;html=1;aspect=fixed;fillColor=#000000;movable=1;resizable=1;rotatable=1;deletable=1;editable=1;locked=0;connectable=1;" vertex="1" parent="SwZNiAvCX6HAkOTveVuw-153">
          <mxGeometry x="6.665" y="6.666666666666666" width="6.665" height="6.665" as="geometry" />
        </mxCell>
        <mxCell id="SwZNiAvCX6HAkOTveVuw-157" value="" style="whiteSpace=wrap;html=1;aspect=fixed;fillColor=#000000;movable=0;resizable=0;rotatable=0;deletable=0;editable=0;locked=1;connectable=0;" vertex="1" parent="SwZNiAvCX6HAkOTveVuw-153">
          <mxGeometry y="13.333333333333332" width="6.665" height="6.665" as="geometry" />
        </mxCell>
        <mxCell id="SwZNiAvCX6HAkOTveVuw-158" value="" style="rounded=0;whiteSpace=wrap;html=1;rotation=90;movable=1;resizable=1;rotatable=1;deletable=1;editable=1;locked=0;connectable=1;" vertex="1" parent="SwZNiAvCX6HAkOTveVuw-152">
          <mxGeometry x="9.66749999999999" y="3.3366666666666447" width="19.995" height="13.333333333333332" as="geometry" />
        </mxCell>
        <mxCell id="SwZNiAvCX6HAkOTveVuw-159" value="" style="whiteSpace=wrap;html=1;aspect=fixed;fillColor=#000000;movable=1;resizable=1;rotatable=1;deletable=1;editable=1;locked=0;connectable=1;" vertex="1" parent="SwZNiAvCX6HAkOTveVuw-152">
          <mxGeometry x="19.670000000000016" y="13.343333333333305" width="6.665" height="6.665" as="geometry" />
        </mxCell>
        <mxCell id="SwZNiAvCX6HAkOTveVuw-160" value="" style="whiteSpace=wrap;html=1;aspect=fixed;fillColor=#000000;movable=1;resizable=1;rotatable=1;deletable=1;editable=1;locked=0;connectable=1;" vertex="1" parent="SwZNiAvCX6HAkOTveVuw-152">
          <mxGeometry x="19.66500000000002" width="6.665" height="6.665" as="geometry" />
        </mxCell>
        <mxCell id="SwZNiAvCX6HAkOTveVuw-161" value="" style="whiteSpace=wrap;html=1;aspect=fixed;fillColor=#000000;movable=1;resizable=1;rotatable=1;deletable=1;editable=1;locked=0;connectable=1;" vertex="1" parent="SwZNiAvCX6HAkOTveVuw-152">
          <mxGeometry x="13" y="13.346666666666636" width="6.665" height="6.665" as="geometry" />
        </mxCell>
        <mxCell id="SwZNiAvCX6HAkOTveVuw-162" value="" style="whiteSpace=wrap;html=1;aspect=fixed;fillColor=none;movable=1;resizable=1;rotatable=1;deletable=1;editable=1;locked=0;connectable=1;" vertex="1" parent="SwZNiAvCX6HAkOTveVuw-152">
          <mxGeometry x="13.330000000000013" y="6.683333333333337" width="6.665" height="6.665" as="geometry" />
        </mxCell>
        <mxCell id="SwZNiAvCX6HAkOTveVuw-163" value="" style="whiteSpace=wrap;html=1;aspect=fixed;fillColor=#000000;movable=1;resizable=1;rotatable=1;deletable=1;editable=1;locked=0;connectable=1;" vertex="1" parent="SwZNiAvCX6HAkOTveVuw-152">
          <mxGeometry x="19.670000000000016" y="6.663333333333355" width="6.665" height="6.665" as="geometry" />
        </mxCell>
        <mxCell id="SwZNiAvCX6HAkOTveVuw-164" value="" style="group;movable=1;resizable=1;rotatable=1;deletable=1;editable=1;locked=0;connectable=1;" vertex="1" connectable="0" parent="SwZNiAvCX6HAkOTveVuw-152">
          <mxGeometry y="20.01666666666665" width="13.33" height="20" as="geometry" />
        </mxCell>
        <mxCell id="SwZNiAvCX6HAkOTveVuw-165" value="" style="rounded=0;whiteSpace=wrap;html=1;rotation=90;movable=1;resizable=1;rotatable=1;deletable=1;editable=1;locked=0;connectable=1;" vertex="1" parent="SwZNiAvCX6HAkOTveVuw-164">
          <mxGeometry x="-3.3325" y="3.333333333333333" width="19.995" height="13.333333333333332" as="geometry" />
        </mxCell>
        <mxCell id="SwZNiAvCX6HAkOTveVuw-166" value="" style="whiteSpace=wrap;html=1;aspect=fixed;fillColor=#000000;movable=0;resizable=0;rotatable=0;deletable=0;editable=0;locked=1;connectable=0;" vertex="1" parent="SwZNiAvCX6HAkOTveVuw-164">
          <mxGeometry width="6.665" height="6.665" as="geometry" />
        </mxCell>
        <mxCell id="SwZNiAvCX6HAkOTveVuw-167" value="" style="whiteSpace=wrap;html=1;aspect=fixed;fillColor=#000000;movable=1;resizable=1;rotatable=1;deletable=1;editable=1;locked=0;connectable=1;" vertex="1" parent="SwZNiAvCX6HAkOTveVuw-164">
          <mxGeometry x="6.665" y="6.666666666666666" width="6.665" height="6.665" as="geometry" />
        </mxCell>
        <mxCell id="SwZNiAvCX6HAkOTveVuw-168" value="" style="whiteSpace=wrap;html=1;aspect=fixed;fillColor=#000000;movable=0;resizable=0;rotatable=0;deletable=0;editable=0;locked=1;connectable=0;" vertex="1" parent="SwZNiAvCX6HAkOTveVuw-164">
          <mxGeometry y="13.333333333333332" width="6.665" height="6.665" as="geometry" />
        </mxCell>
        <mxCell id="SwZNiAvCX6HAkOTveVuw-169" value="" style="rounded=0;whiteSpace=wrap;html=1;rotation=90;movable=1;resizable=1;rotatable=1;deletable=1;editable=1;locked=0;connectable=1;" vertex="1" parent="SwZNiAvCX6HAkOTveVuw-152">
          <mxGeometry x="9.667500000000018" y="23.349999999999966" width="19.995" height="13.333333333333332" as="geometry" />
        </mxCell>
        <mxCell id="SwZNiAvCX6HAkOTveVuw-170" value="" style="whiteSpace=wrap;html=1;aspect=fixed;fillColor=#000000;movable=1;resizable=1;rotatable=1;deletable=1;editable=1;locked=0;connectable=1;" vertex="1" parent="SwZNiAvCX6HAkOTveVuw-152">
          <mxGeometry x="19.670000000000016" y="33.35666666666663" width="6.665" height="6.665" as="geometry" />
        </mxCell>
        <mxCell id="SwZNiAvCX6HAkOTveVuw-171" value="" style="whiteSpace=wrap;html=1;aspect=fixed;fillColor=none;movable=1;resizable=1;rotatable=1;deletable=1;editable=1;locked=0;connectable=1;" vertex="1" parent="SwZNiAvCX6HAkOTveVuw-152">
          <mxGeometry x="13.330000000000041" y="26.69666666666666" width="6.665" height="6.665" as="geometry" />
        </mxCell>
        <mxCell id="SwZNiAvCX6HAkOTveVuw-172" value="" style="whiteSpace=wrap;html=1;aspect=fixed;fillColor=#000000;movable=1;resizable=1;rotatable=1;deletable=1;editable=1;locked=0;connectable=1;" vertex="1" parent="SwZNiAvCX6HAkOTveVuw-152">
          <mxGeometry x="19.670000000000016" y="26.676666666666677" width="6.665" height="6.665" as="geometry" />
        </mxCell>
        <mxCell id="SwZNiAvCX6HAkOTveVuw-173" value="" style="whiteSpace=wrap;html=1;aspect=fixed;fillColor=none;movable=1;resizable=1;rotatable=1;deletable=1;editable=1;locked=0;connectable=1;" vertex="1" parent="SwZNiAvCX6HAkOTveVuw-152">
          <mxGeometry x="19.670000000000016" y="20.01333333333332" width="6.665" height="6.665" as="geometry" />
        </mxCell>
        <mxCell id="SwZNiAvCX6HAkOTveVuw-174" value="" style="endArrow=classic;html=1;rounded=0;" edge="1" parent="1">
          <mxGeometry width="50" height="50" relative="1" as="geometry">
            <mxPoint x="300" y="590" as="sourcePoint" />
            <mxPoint x="430" y="520" as="targetPoint" />
          </mxGeometry>
        </mxCell>
        <mxCell id="SwZNiAvCX6HAkOTveVuw-175" value="Pagination&lt;div&gt;Service&lt;/div&gt;" style="rounded=1;whiteSpace=wrap;html=1;fillColor=#dae8fc;strokeColor=#6c8ebf;" vertex="1" parent="1">
          <mxGeometry x="380" y="450" width="120" height="60" as="geometry" />
        </mxCell>
        <mxCell id="SwZNiAvCX6HAkOTveVuw-176" value="PDF Generation&lt;div&gt;Service&lt;/div&gt;" style="rounded=1;whiteSpace=wrap;html=1;fillColor=#dae8fc;strokeColor=#6c8ebf;" vertex="1" parent="1">
          <mxGeometry x="240" y="380" width="120" height="60" as="geometry" />
        </mxCell>
        <mxCell id="SwZNiAvCX6HAkOTveVuw-177" value="" style="endArrow=classic;html=1;rounded=0;" edge="1" parent="1">
          <mxGeometry width="50" height="50" relative="1" as="geometry">
            <mxPoint x="440" y="440" as="sourcePoint" />
            <mxPoint x="370" y="410" as="targetPoint" />
          </mxGeometry>
        </mxCell>
        <mxCell id="SwZNiAvCX6HAkOTveVuw-178" value="" style="endArrow=classic;html=1;rounded=0;" edge="1" parent="1">
          <mxGeometry width="50" height="50" relative="1" as="geometry">
            <mxPoint x="230" y="410" as="sourcePoint" />
            <mxPoint x="120" y="360" as="targetPoint" />
          </mxGeometry>
        </mxCell>
        <mxCell id="SwZNiAvCX6HAkOTveVuw-180" value="" style="group;movable=0;resizable=0;rotatable=0;deletable=0;editable=0;locked=1;connectable=0;" vertex="1" connectable="0" parent="1">
          <mxGeometry x="330" y="510.00333333333333" width="13.33" height="20" as="geometry" />
        </mxCell>
        <mxCell id="SwZNiAvCX6HAkOTveVuw-181" value="" style="rounded=0;whiteSpace=wrap;html=1;rotation=90;movable=1;resizable=1;rotatable=1;deletable=1;editable=1;locked=0;connectable=1;" vertex="1" parent="SwZNiAvCX6HAkOTveVuw-180">
          <mxGeometry x="-13.3325" y="-3.336666666666667" width="19.995" height="13.333333333333332" as="geometry" />
        </mxCell>
        <mxCell id="SwZNiAvCX6HAkOTveVuw-183" value="" style="whiteSpace=wrap;html=1;aspect=fixed;fillColor=#000000;movable=1;resizable=1;rotatable=1;deletable=1;editable=1;locked=0;connectable=1;" vertex="1" parent="1">
          <mxGeometry x="326.335" y="510" width="6.665" height="6.665" as="geometry" />
        </mxCell>
        <mxCell id="SwZNiAvCX6HAkOTveVuw-201" value="" style="whiteSpace=wrap;html=1;aspect=fixed;fillColor=#000000;movable=1;resizable=1;rotatable=1;deletable=1;editable=1;locked=0;connectable=1;" vertex="1" parent="1">
          <mxGeometry x="320.67" y="503.34" width="6.665" height="6.665" as="geometry" />
        </mxCell>
        <mxCell id="SwZNiAvCX6HAkOTveVuw-202" value="" style="whiteSpace=wrap;html=1;aspect=fixed;fillColor=#000000;movable=1;resizable=1;rotatable=1;deletable=1;editable=1;locked=0;connectable=1;" vertex="1" parent="1">
          <mxGeometry x="320.67" y="516.68" width="6.665" height="6.665" as="geometry" />
        </mxCell>
        <mxCell id="SwZNiAvCX6HAkOTveVuw-203" value="" style="endArrow=none;html=1;rounded=0;" edge="1" parent="1">
          <mxGeometry width="50" height="50" relative="1" as="geometry">
            <mxPoint x="327" y="503" as="sourcePoint" />
            <mxPoint x="327" y="495" as="targetPoint" />
          </mxGeometry>
        </mxCell>
        <mxCell id="SwZNiAvCX6HAkOTveVuw-204" value="" style="endArrow=none;html=1;rounded=0;" edge="1" parent="1">
          <mxGeometry width="50" height="50" relative="1" as="geometry">
            <mxPoint x="310" y="510" as="sourcePoint" />
            <mxPoint x="320" y="510" as="targetPoint" />
          </mxGeometry>
        </mxCell>
        <mxCell id="SwZNiAvCX6HAkOTveVuw-205" value="" style="endArrow=none;html=1;rounded=0;" edge="1" parent="1">
          <mxGeometry width="50" height="50" relative="1" as="geometry">
            <mxPoint x="310" y="516.96" as="sourcePoint" />
            <mxPoint x="320" y="516.96" as="targetPoint" />
          </mxGeometry>
        </mxCell>
        <mxCell id="SwZNiAvCX6HAkOTveVuw-206" value="" style="endArrow=none;html=1;rounded=0;" edge="1" parent="1" source="SwZNiAvCX6HAkOTveVuw-211">
          <mxGeometry width="50" height="50" relative="1" as="geometry">
            <mxPoint x="333" y="503" as="sourcePoint" />
            <mxPoint x="333" y="495" as="targetPoint" />
          </mxGeometry>
        </mxCell>
        <mxCell id="SwZNiAvCX6HAkOTveVuw-207" value="" style="endArrow=none;html=1;rounded=0;" edge="1" parent="1">
          <mxGeometry width="50" height="50" relative="1" as="geometry">
            <mxPoint x="320" y="503" as="sourcePoint" />
            <mxPoint x="320" y="495" as="targetPoint" />
          </mxGeometry>
        </mxCell>
        <mxCell id="SwZNiAvCX6HAkOTveVuw-208" value="" style="endArrow=none;html=1;rounded=0;" edge="1" parent="1">
          <mxGeometry width="50" height="50" relative="1" as="geometry">
            <mxPoint x="310" y="524" as="sourcePoint" />
            <mxPoint x="320" y="524" as="targetPoint" />
          </mxGeometry>
        </mxCell>
        <mxCell id="SwZNiAvCX6HAkOTveVuw-209" value="" style="endArrow=none;html=1;rounded=0;" edge="1" parent="1">
          <mxGeometry width="50" height="50" relative="1" as="geometry">
            <mxPoint x="310" y="503" as="sourcePoint" />
            <mxPoint x="320" y="503" as="targetPoint" />
          </mxGeometry>
        </mxCell>
        <mxCell id="SwZNiAvCX6HAkOTveVuw-210" value="&lt;div style=&quot;line-height: 0%;&quot;&gt;&lt;font style=&quot;font-size: 2px;&quot;&gt;1&lt;/font&gt;&lt;div&gt;&lt;font style=&quot;font-size: 2px;&quot;&gt;2&lt;/font&gt;&lt;/div&gt;&lt;/div&gt;" style="text;html=1;align=center;verticalAlign=middle;whiteSpace=wrap;rounded=0;" vertex="1" parent="1">
          <mxGeometry x="320.33" y="490" width="6" height="13.34" as="geometry" />
        </mxCell>
        <mxCell id="SwZNiAvCX6HAkOTveVuw-212" value="" style="endArrow=none;html=1;rounded=0;" edge="1" parent="1" target="SwZNiAvCX6HAkOTveVuw-211">
          <mxGeometry width="50" height="50" relative="1" as="geometry">
            <mxPoint x="333" y="503" as="sourcePoint" />
            <mxPoint x="333" y="495" as="targetPoint" />
          </mxGeometry>
        </mxCell>
        <mxCell id="SwZNiAvCX6HAkOTveVuw-211" value="&lt;div style=&quot;line-height: 0%;&quot;&gt;&lt;font style=&quot;font-size: 2px;&quot;&gt;1&lt;/font&gt;&lt;div&gt;&lt;font style=&quot;font-size: 2px;&quot;&gt;2&lt;/font&gt;&lt;/div&gt;&lt;/div&gt;" style="text;html=1;align=center;verticalAlign=middle;whiteSpace=wrap;rounded=0;" vertex="1" parent="1">
          <mxGeometry x="327" y="490" width="6" height="13.34" as="geometry" />
        </mxCell>
        <mxCell id="SwZNiAvCX6HAkOTveVuw-213" value="&lt;div style=&quot;line-height: 0%;&quot;&gt;&lt;font style=&quot;font-size: 2px;&quot;&gt;1&amp;nbsp; &amp;nbsp;&lt;/font&gt;&lt;span style=&quot;font-size: 2px; background-color: transparent; color: light-dark(rgb(0, 0, 0), rgb(255, 255, 255));&quot;&gt;2&lt;/span&gt;&lt;/div&gt;" style="text;html=1;align=center;verticalAlign=middle;whiteSpace=wrap;rounded=0;" vertex="1" parent="1">
          <mxGeometry x="314.33" y="496.66" width="6" height="13.34" as="geometry" />
        </mxCell>
        <mxCell id="SwZNiAvCX6HAkOTveVuw-217" value="&lt;div style=&quot;line-height: 0%;&quot;&gt;&lt;font style=&quot;font-size: 2px;&quot;&gt;1&amp;nbsp; &amp;nbsp;&lt;/font&gt;&lt;span style=&quot;font-size: 2px; background-color: transparent; color: light-dark(rgb(0, 0, 0), rgb(255, 255, 255));&quot;&gt;2&lt;/span&gt;&lt;/div&gt;" style="text;html=1;align=center;verticalAlign=middle;whiteSpace=wrap;rounded=0;" vertex="1" parent="1">
          <mxGeometry x="314.33" y="503" width="6" height="13.34" as="geometry" />
        </mxCell>
        <mxCell id="SwZNiAvCX6HAkOTveVuw-218" value="&lt;div style=&quot;line-height: 0%;&quot;&gt;&lt;font style=&quot;font-size: 2px;&quot;&gt;1&amp;nbsp; &amp;nbsp;&lt;/font&gt;&lt;span style=&quot;font-size: 2px; background-color: transparent; color: light-dark(rgb(0, 0, 0), rgb(255, 255, 255));&quot;&gt;2&lt;/span&gt;&lt;/div&gt;" style="text;html=1;align=center;verticalAlign=middle;whiteSpace=wrap;rounded=0;" vertex="1" parent="1">
          <mxGeometry x="314.33" y="510.01" width="6" height="13.34" as="geometry" />
        </mxCell>
        <mxCell id="SwZNiAvCX6HAkOTveVuw-219" value="" style="rounded=0;whiteSpace=wrap;html=1;rotation=90;movable=1;resizable=1;rotatable=1;deletable=1;editable=1;locked=0;connectable=1;" vertex="1" parent="1">
          <mxGeometry x="346.33750000000003" y="506.2866666666667" width="19.995" height="13.333333333333332" as="geometry" />
        </mxCell>
        <mxCell id="SwZNiAvCX6HAkOTveVuw-220" value="" style="whiteSpace=wrap;html=1;aspect=fixed;fillColor=#000000;movable=1;resizable=1;rotatable=1;deletable=1;editable=1;locked=0;connectable=1;" vertex="1" parent="1">
          <mxGeometry x="356.005" y="509.62" width="6.665" height="6.665" as="geometry" />
        </mxCell>
        <mxCell id="SwZNiAvCX6HAkOTveVuw-221" value="" style="whiteSpace=wrap;html=1;aspect=fixed;fillColor=#000000;movable=1;resizable=1;rotatable=1;deletable=1;editable=1;locked=0;connectable=1;" vertex="1" parent="1">
          <mxGeometry x="356.00000000000006" y="503.34" width="6.665" height="6.665" as="geometry" />
        </mxCell>
        <mxCell id="SwZNiAvCX6HAkOTveVuw-222" value="" style="whiteSpace=wrap;html=1;aspect=fixed;fillColor=#000000;movable=1;resizable=1;rotatable=1;deletable=1;editable=1;locked=0;connectable=1;" vertex="1" parent="1">
          <mxGeometry x="350.34000000000003" y="516.3" width="6.665" height="6.665" as="geometry" />
        </mxCell>
        <mxCell id="SwZNiAvCX6HAkOTveVuw-223" value="" style="endArrow=none;html=1;rounded=0;" edge="1" parent="1">
          <mxGeometry width="50" height="50" relative="1" as="geometry">
            <mxPoint x="356.67" y="502.62" as="sourcePoint" />
            <mxPoint x="356.67" y="494.62" as="targetPoint" />
          </mxGeometry>
        </mxCell>
        <mxCell id="SwZNiAvCX6HAkOTveVuw-224" value="" style="endArrow=none;html=1;rounded=0;" edge="1" parent="1">
          <mxGeometry width="50" height="50" relative="1" as="geometry">
            <mxPoint x="339.67" y="509.62" as="sourcePoint" />
            <mxPoint x="349.67" y="509.62" as="targetPoint" />
          </mxGeometry>
        </mxCell>
        <mxCell id="SwZNiAvCX6HAkOTveVuw-225" value="" style="endArrow=none;html=1;rounded=0;" edge="1" parent="1">
          <mxGeometry width="50" height="50" relative="1" as="geometry">
            <mxPoint x="339.67" y="516.58" as="sourcePoint" />
            <mxPoint x="349.67" y="516.58" as="targetPoint" />
          </mxGeometry>
        </mxCell>
        <mxCell id="SwZNiAvCX6HAkOTveVuw-226" value="" style="endArrow=none;html=1;rounded=0;" edge="1" parent="1" source="SwZNiAvCX6HAkOTveVuw-232">
          <mxGeometry width="50" height="50" relative="1" as="geometry">
            <mxPoint x="362.67" y="502.62" as="sourcePoint" />
            <mxPoint x="362.67" y="494.62" as="targetPoint" />
          </mxGeometry>
        </mxCell>
        <mxCell id="SwZNiAvCX6HAkOTveVuw-227" value="" style="endArrow=none;html=1;rounded=0;" edge="1" parent="1">
          <mxGeometry width="50" height="50" relative="1" as="geometry">
            <mxPoint x="349.67" y="502.62" as="sourcePoint" />
            <mxPoint x="349.67" y="494.62" as="targetPoint" />
          </mxGeometry>
        </mxCell>
        <mxCell id="SwZNiAvCX6HAkOTveVuw-228" value="" style="endArrow=none;html=1;rounded=0;" edge="1" parent="1">
          <mxGeometry width="50" height="50" relative="1" as="geometry">
            <mxPoint x="339.67" y="523.62" as="sourcePoint" />
            <mxPoint x="349.67" y="523.62" as="targetPoint" />
          </mxGeometry>
        </mxCell>
        <mxCell id="SwZNiAvCX6HAkOTveVuw-229" value="" style="endArrow=none;html=1;rounded=0;" edge="1" parent="1">
          <mxGeometry width="50" height="50" relative="1" as="geometry">
            <mxPoint x="339.67" y="502.62" as="sourcePoint" />
            <mxPoint x="349.67" y="502.62" as="targetPoint" />
          </mxGeometry>
        </mxCell>
        <mxCell id="SwZNiAvCX6HAkOTveVuw-230" value="&lt;div style=&quot;line-height: 0%;&quot;&gt;&lt;font style=&quot;font-size: 2px;&quot;&gt;1&lt;/font&gt;&lt;div&gt;&lt;font style=&quot;font-size: 2px;&quot;&gt;2&lt;/font&gt;&lt;/div&gt;&lt;/div&gt;" style="text;html=1;align=center;verticalAlign=middle;whiteSpace=wrap;rounded=0;" vertex="1" parent="1">
          <mxGeometry x="350" y="489.62" width="6" height="13.34" as="geometry" />
        </mxCell>
        <mxCell id="SwZNiAvCX6HAkOTveVuw-231" value="" style="endArrow=none;html=1;rounded=0;" edge="1" parent="1" target="SwZNiAvCX6HAkOTveVuw-232">
          <mxGeometry width="50" height="50" relative="1" as="geometry">
            <mxPoint x="362.67" y="502.62" as="sourcePoint" />
            <mxPoint x="362.67" y="494.62" as="targetPoint" />
          </mxGeometry>
        </mxCell>
        <mxCell id="SwZNiAvCX6HAkOTveVuw-232" value="&lt;div style=&quot;line-height: 0%;&quot;&gt;&lt;font style=&quot;font-size: 2px;&quot;&gt;1&lt;/font&gt;&lt;div&gt;&lt;font style=&quot;font-size: 2px;&quot;&gt;2&lt;/font&gt;&lt;/div&gt;&lt;/div&gt;" style="text;html=1;align=center;verticalAlign=middle;whiteSpace=wrap;rounded=0;" vertex="1" parent="1">
          <mxGeometry x="356.67" y="489.62" width="6" height="13.34" as="geometry" />
        </mxCell>
        <mxCell id="SwZNiAvCX6HAkOTveVuw-233" value="&lt;div style=&quot;line-height: 0%;&quot;&gt;&lt;font style=&quot;font-size: 2px;&quot;&gt;1&amp;nbsp; &amp;nbsp;&lt;/font&gt;&lt;span style=&quot;font-size: 2px; background-color: transparent; color: light-dark(rgb(0, 0, 0), rgb(255, 255, 255));&quot;&gt;2&lt;/span&gt;&lt;/div&gt;" style="text;html=1;align=center;verticalAlign=middle;whiteSpace=wrap;rounded=0;" vertex="1" parent="1">
          <mxGeometry x="344" y="496.28000000000003" width="6" height="13.34" as="geometry" />
        </mxCell>
        <mxCell id="SwZNiAvCX6HAkOTveVuw-234" value="&lt;div style=&quot;line-height: 0%;&quot;&gt;&lt;font style=&quot;font-size: 2px;&quot;&gt;1&amp;nbsp; &amp;nbsp;&lt;/font&gt;&lt;span style=&quot;font-size: 2px; background-color: transparent; color: light-dark(rgb(0, 0, 0), rgb(255, 255, 255));&quot;&gt;2&lt;/span&gt;&lt;/div&gt;" style="text;html=1;align=center;verticalAlign=middle;whiteSpace=wrap;rounded=0;" vertex="1" parent="1">
          <mxGeometry x="344" y="502.62" width="6" height="13.34" as="geometry" />
        </mxCell>
        <mxCell id="SwZNiAvCX6HAkOTveVuw-235" value="&lt;div style=&quot;line-height: 0%;&quot;&gt;&lt;font style=&quot;font-size: 2px;&quot;&gt;1&amp;nbsp; &amp;nbsp;&lt;/font&gt;&lt;span style=&quot;font-size: 2px; background-color: transparent; color: light-dark(rgb(0, 0, 0), rgb(255, 255, 255));&quot;&gt;2&lt;/span&gt;&lt;/div&gt;" style="text;html=1;align=center;verticalAlign=middle;whiteSpace=wrap;rounded=0;" vertex="1" parent="1">
          <mxGeometry x="344" y="509.63" width="6" height="13.34" as="geometry" />
        </mxCell>
        <mxCell id="SwZNiAvCX6HAkOTveVuw-236" value="" style="whiteSpace=wrap;html=1;aspect=fixed;fillColor=#000000;movable=1;resizable=1;rotatable=1;deletable=1;editable=1;locked=0;connectable=1;" vertex="1" parent="1">
          <mxGeometry x="356" y="515.96" width="6.665" height="6.665" as="geometry" />
        </mxCell>
        <mxCell id="SwZNiAvCX6HAkOTveVuw-237" value="" style="whiteSpace=wrap;html=1;aspect=fixed;fillColor=none;movable=1;resizable=1;rotatable=1;deletable=1;editable=1;locked=0;connectable=1;" vertex="1" parent="1">
          <mxGeometry x="349.67" y="502.62" width="6.665" height="6.665" as="geometry" />
        </mxCell>
        <mxCell id="SwZNiAvCX6HAkOTveVuw-238" value="" style="rounded=0;whiteSpace=wrap;html=1;rotation=90;movable=1;resizable=1;rotatable=1;deletable=1;editable=1;locked=0;connectable=1;" vertex="1" parent="1">
          <mxGeometry x="316.6675" y="541.6666666666667" width="19.995" height="13.333333333333332" as="geometry" />
        </mxCell>
        <mxCell id="SwZNiAvCX6HAkOTveVuw-239" value="" style="whiteSpace=wrap;html=1;aspect=fixed;fillColor=#000000;movable=1;resizable=1;rotatable=1;deletable=1;editable=1;locked=0;connectable=1;" vertex="1" parent="1">
          <mxGeometry x="326.335" y="545" width="6.665" height="6.665" as="geometry" />
        </mxCell>
        <mxCell id="SwZNiAvCX6HAkOTveVuw-240" value="" style="whiteSpace=wrap;html=1;aspect=fixed;fillColor=#000000;movable=1;resizable=1;rotatable=1;deletable=1;editable=1;locked=0;connectable=1;" vertex="1" parent="1">
          <mxGeometry x="320.67" y="538.3399999999999" width="6.665" height="6.665" as="geometry" />
        </mxCell>
        <mxCell id="SwZNiAvCX6HAkOTveVuw-241" value="" style="whiteSpace=wrap;html=1;aspect=fixed;fillColor=#000000;movable=1;resizable=1;rotatable=1;deletable=1;editable=1;locked=0;connectable=1;" vertex="1" parent="1">
          <mxGeometry x="320.67" y="551.68" width="6.665" height="6.665" as="geometry" />
        </mxCell>
        <mxCell id="SwZNiAvCX6HAkOTveVuw-242" value="" style="endArrow=none;html=1;rounded=0;" edge="1" parent="1">
          <mxGeometry width="50" height="50" relative="1" as="geometry">
            <mxPoint x="327" y="538" as="sourcePoint" />
            <mxPoint x="327" y="530" as="targetPoint" />
          </mxGeometry>
        </mxCell>
        <mxCell id="SwZNiAvCX6HAkOTveVuw-243" value="" style="endArrow=none;html=1;rounded=0;" edge="1" parent="1">
          <mxGeometry width="50" height="50" relative="1" as="geometry">
            <mxPoint x="310" y="545" as="sourcePoint" />
            <mxPoint x="320" y="545" as="targetPoint" />
          </mxGeometry>
        </mxCell>
        <mxCell id="SwZNiAvCX6HAkOTveVuw-244" value="" style="endArrow=none;html=1;rounded=0;" edge="1" parent="1">
          <mxGeometry width="50" height="50" relative="1" as="geometry">
            <mxPoint x="310" y="551.96" as="sourcePoint" />
            <mxPoint x="320" y="551.96" as="targetPoint" />
          </mxGeometry>
        </mxCell>
        <mxCell id="SwZNiAvCX6HAkOTveVuw-245" value="" style="endArrow=none;html=1;rounded=0;" edge="1" parent="1">
          <mxGeometry width="50" height="50" relative="1" as="geometry">
            <mxPoint x="333" y="530" as="sourcePoint" />
            <mxPoint x="333" y="530" as="targetPoint" />
          </mxGeometry>
        </mxCell>
        <mxCell id="SwZNiAvCX6HAkOTveVuw-246" value="" style="endArrow=none;html=1;rounded=0;" edge="1" parent="1">
          <mxGeometry width="50" height="50" relative="1" as="geometry">
            <mxPoint x="320" y="538" as="sourcePoint" />
            <mxPoint x="320" y="530" as="targetPoint" />
          </mxGeometry>
        </mxCell>
        <mxCell id="SwZNiAvCX6HAkOTveVuw-247" value="" style="endArrow=none;html=1;rounded=0;" edge="1" parent="1">
          <mxGeometry width="50" height="50" relative="1" as="geometry">
            <mxPoint x="310" y="559" as="sourcePoint" />
            <mxPoint x="320" y="559" as="targetPoint" />
          </mxGeometry>
        </mxCell>
        <mxCell id="SwZNiAvCX6HAkOTveVuw-248" value="" style="endArrow=none;html=1;rounded=0;" edge="1" parent="1">
          <mxGeometry width="50" height="50" relative="1" as="geometry">
            <mxPoint x="310" y="538" as="sourcePoint" />
            <mxPoint x="320" y="538" as="targetPoint" />
          </mxGeometry>
        </mxCell>
        <mxCell id="SwZNiAvCX6HAkOTveVuw-249" value="" style="endArrow=none;html=1;rounded=0;" edge="1" parent="1">
          <mxGeometry width="50" height="50" relative="1" as="geometry">
            <mxPoint x="333" y="538" as="sourcePoint" />
            <mxPoint x="333" y="538" as="targetPoint" />
          </mxGeometry>
        </mxCell>
        <mxCell id="SwZNiAvCX6HAkOTveVuw-250" value="&lt;div style=&quot;line-height: 0%;&quot;&gt;&lt;font style=&quot;font-size: 2px;&quot;&gt;1&amp;nbsp; &amp;nbsp;&lt;/font&gt;&lt;span style=&quot;font-size: 2px; background-color: transparent; color: light-dark(rgb(0, 0, 0), rgb(255, 255, 255));&quot;&gt;2&lt;/span&gt;&lt;/div&gt;" style="text;html=1;align=center;verticalAlign=middle;whiteSpace=wrap;rounded=0;" vertex="1" parent="1">
          <mxGeometry x="314.33" y="531.6600000000001" width="6" height="13.34" as="geometry" />
        </mxCell>
        <mxCell id="SwZNiAvCX6HAkOTveVuw-251" value="&lt;div style=&quot;line-height: 0%;&quot;&gt;&lt;font style=&quot;font-size: 2px;&quot;&gt;1&amp;nbsp; &amp;nbsp;&lt;/font&gt;&lt;span style=&quot;font-size: 2px; background-color: transparent; color: light-dark(rgb(0, 0, 0), rgb(255, 255, 255));&quot;&gt;2&lt;/span&gt;&lt;/div&gt;" style="text;html=1;align=center;verticalAlign=middle;whiteSpace=wrap;rounded=0;" vertex="1" parent="1">
          <mxGeometry x="314.33" y="538" width="6" height="13.34" as="geometry" />
        </mxCell>
        <mxCell id="SwZNiAvCX6HAkOTveVuw-252" value="&lt;div style=&quot;line-height: 0%;&quot;&gt;&lt;font style=&quot;font-size: 2px;&quot;&gt;1&amp;nbsp; &amp;nbsp;&lt;/font&gt;&lt;span style=&quot;font-size: 2px; background-color: transparent; color: light-dark(rgb(0, 0, 0), rgb(255, 255, 255));&quot;&gt;2&lt;/span&gt;&lt;/div&gt;" style="text;html=1;align=center;verticalAlign=middle;whiteSpace=wrap;rounded=0;" vertex="1" parent="1">
          <mxGeometry x="314.33" y="545.01" width="6" height="13.34" as="geometry" />
        </mxCell>
        <mxCell id="SwZNiAvCX6HAkOTveVuw-253" value="" style="rounded=0;whiteSpace=wrap;html=1;rotation=90;movable=1;resizable=1;rotatable=1;deletable=1;editable=1;locked=0;connectable=1;" vertex="1" parent="1">
          <mxGeometry x="346.33750000000003" y="539.2966666666667" width="19.995" height="13.333333333333332" as="geometry" />
        </mxCell>
        <mxCell id="SwZNiAvCX6HAkOTveVuw-254" value="" style="whiteSpace=wrap;html=1;aspect=fixed;fillColor=#000000;movable=1;resizable=1;rotatable=1;deletable=1;editable=1;locked=0;connectable=1;" vertex="1" parent="1">
          <mxGeometry x="356.005" y="542.63" width="6.665" height="6.665" as="geometry" />
        </mxCell>
        <mxCell id="SwZNiAvCX6HAkOTveVuw-257" value="" style="endArrow=none;html=1;rounded=0;" edge="1" parent="1">
          <mxGeometry width="50" height="50" relative="1" as="geometry">
            <mxPoint x="356.67" y="535.63" as="sourcePoint" />
            <mxPoint x="356.67" y="527.63" as="targetPoint" />
          </mxGeometry>
        </mxCell>
        <mxCell id="SwZNiAvCX6HAkOTveVuw-258" value="" style="endArrow=none;html=1;rounded=0;" edge="1" parent="1">
          <mxGeometry width="50" height="50" relative="1" as="geometry">
            <mxPoint x="339.67" y="542.63" as="sourcePoint" />
            <mxPoint x="349.67" y="542.63" as="targetPoint" />
          </mxGeometry>
        </mxCell>
        <mxCell id="SwZNiAvCX6HAkOTveVuw-259" value="" style="endArrow=none;html=1;rounded=0;" edge="1" parent="1">
          <mxGeometry width="50" height="50" relative="1" as="geometry">
            <mxPoint x="339.67" y="549.59" as="sourcePoint" />
            <mxPoint x="349.67" y="549.59" as="targetPoint" />
          </mxGeometry>
        </mxCell>
        <mxCell id="SwZNiAvCX6HAkOTveVuw-260" value="" style="endArrow=none;html=1;rounded=0;" edge="1" parent="1" source="SwZNiAvCX6HAkOTveVuw-266">
          <mxGeometry width="50" height="50" relative="1" as="geometry">
            <mxPoint x="362.67" y="535.63" as="sourcePoint" />
            <mxPoint x="362.67" y="527.63" as="targetPoint" />
          </mxGeometry>
        </mxCell>
        <mxCell id="SwZNiAvCX6HAkOTveVuw-261" value="" style="endArrow=none;html=1;rounded=0;" edge="1" parent="1">
          <mxGeometry width="50" height="50" relative="1" as="geometry">
            <mxPoint x="349.67" y="535.63" as="sourcePoint" />
            <mxPoint x="349.67" y="527.63" as="targetPoint" />
          </mxGeometry>
        </mxCell>
        <mxCell id="SwZNiAvCX6HAkOTveVuw-262" value="" style="endArrow=none;html=1;rounded=0;" edge="1" parent="1">
          <mxGeometry width="50" height="50" relative="1" as="geometry">
            <mxPoint x="339.67" y="556.63" as="sourcePoint" />
            <mxPoint x="349.67" y="556.63" as="targetPoint" />
          </mxGeometry>
        </mxCell>
        <mxCell id="SwZNiAvCX6HAkOTveVuw-263" value="" style="endArrow=none;html=1;rounded=0;" edge="1" parent="1">
          <mxGeometry width="50" height="50" relative="1" as="geometry">
            <mxPoint x="339.67" y="535.63" as="sourcePoint" />
            <mxPoint x="349.67" y="535.63" as="targetPoint" />
          </mxGeometry>
        </mxCell>
        <mxCell id="SwZNiAvCX6HAkOTveVuw-264" value="&lt;div style=&quot;line-height: 0%;&quot;&gt;&lt;font style=&quot;font-size: 2px;&quot;&gt;1&lt;/font&gt;&lt;div&gt;&lt;font style=&quot;font-size: 2px;&quot;&gt;2&lt;/font&gt;&lt;/div&gt;&lt;/div&gt;" style="text;html=1;align=center;verticalAlign=middle;whiteSpace=wrap;rounded=0;" vertex="1" parent="1">
          <mxGeometry x="350" y="522.63" width="6" height="13.34" as="geometry" />
        </mxCell>
        <mxCell id="SwZNiAvCX6HAkOTveVuw-265" value="" style="endArrow=none;html=1;rounded=0;" edge="1" parent="1" target="SwZNiAvCX6HAkOTveVuw-266">
          <mxGeometry width="50" height="50" relative="1" as="geometry">
            <mxPoint x="362.67" y="535.63" as="sourcePoint" />
            <mxPoint x="362.67" y="527.63" as="targetPoint" />
          </mxGeometry>
        </mxCell>
        <mxCell id="SwZNiAvCX6HAkOTveVuw-266" value="&lt;div style=&quot;line-height: 0%;&quot;&gt;&lt;font style=&quot;font-size: 2px;&quot;&gt;1&lt;/font&gt;&lt;div&gt;&lt;font style=&quot;font-size: 2px;&quot;&gt;2&lt;/font&gt;&lt;/div&gt;&lt;/div&gt;" style="text;html=1;align=center;verticalAlign=middle;whiteSpace=wrap;rounded=0;" vertex="1" parent="1">
          <mxGeometry x="356.67" y="522.63" width="6" height="13.34" as="geometry" />
        </mxCell>
        <mxCell id="SwZNiAvCX6HAkOTveVuw-267" value="&lt;div style=&quot;line-height: 0%;&quot;&gt;&lt;font style=&quot;font-size: 2px;&quot;&gt;1&amp;nbsp; &amp;nbsp;&lt;/font&gt;&lt;span style=&quot;font-size: 2px; background-color: transparent; color: light-dark(rgb(0, 0, 0), rgb(255, 255, 255));&quot;&gt;2&lt;/span&gt;&lt;/div&gt;" style="text;html=1;align=center;verticalAlign=middle;whiteSpace=wrap;rounded=0;" vertex="1" parent="1">
          <mxGeometry x="344" y="529.2900000000001" width="6" height="13.34" as="geometry" />
        </mxCell>
        <mxCell id="SwZNiAvCX6HAkOTveVuw-268" value="&lt;div style=&quot;line-height: 0%;&quot;&gt;&lt;font style=&quot;font-size: 2px;&quot;&gt;1&amp;nbsp; &amp;nbsp;&lt;/font&gt;&lt;span style=&quot;font-size: 2px; background-color: transparent; color: light-dark(rgb(0, 0, 0), rgb(255, 255, 255));&quot;&gt;2&lt;/span&gt;&lt;/div&gt;" style="text;html=1;align=center;verticalAlign=middle;whiteSpace=wrap;rounded=0;" vertex="1" parent="1">
          <mxGeometry x="344" y="535.63" width="6" height="13.34" as="geometry" />
        </mxCell>
        <mxCell id="SwZNiAvCX6HAkOTveVuw-269" value="&lt;div style=&quot;line-height: 0%;&quot;&gt;&lt;font style=&quot;font-size: 2px;&quot;&gt;1&amp;nbsp; &amp;nbsp;&lt;/font&gt;&lt;span style=&quot;font-size: 2px; background-color: transparent; color: light-dark(rgb(0, 0, 0), rgb(255, 255, 255));&quot;&gt;2&lt;/span&gt;&lt;/div&gt;" style="text;html=1;align=center;verticalAlign=middle;whiteSpace=wrap;rounded=0;" vertex="1" parent="1">
          <mxGeometry x="344" y="542.64" width="6" height="13.34" as="geometry" />
        </mxCell>
        <mxCell id="SwZNiAvCX6HAkOTveVuw-270" value="" style="whiteSpace=wrap;html=1;aspect=fixed;fillColor=#000000;movable=1;resizable=1;rotatable=1;deletable=1;editable=1;locked=0;connectable=1;" vertex="1" parent="1">
          <mxGeometry x="356" y="548.97" width="6.665" height="6.665" as="geometry" />
        </mxCell>
        <mxCell id="SwZNiAvCX6HAkOTveVuw-271" value="" style="whiteSpace=wrap;html=1;aspect=fixed;fillColor=none;movable=1;resizable=1;rotatable=1;deletable=1;editable=1;locked=0;connectable=1;" vertex="1" parent="1">
          <mxGeometry x="349.67" y="535.63" width="6.665" height="6.665" as="geometry" />
        </mxCell>
        <mxCell id="SwZNiAvCX6HAkOTveVuw-272" value="" style="whiteSpace=wrap;html=1;aspect=fixed;fillColor=none;movable=1;resizable=1;rotatable=1;deletable=1;editable=1;locked=0;connectable=1;" vertex="1" parent="1">
          <mxGeometry x="349.34" y="542.3" width="6.665" height="6.665" as="geometry" />
        </mxCell>
        <mxCell id="SwZNiAvCX6HAkOTveVuw-273" value="" style="group;movable=0;resizable=0;rotatable=0;deletable=0;editable=0;locked=1;connectable=0;" vertex="1" connectable="0" parent="1">
          <mxGeometry x="450" y="360.3833333333333" width="13.33" height="20" as="geometry" />
        </mxCell>
        <mxCell id="SwZNiAvCX6HAkOTveVuw-275" value="" style="whiteSpace=wrap;html=1;aspect=fixed;fillColor=#000000;movable=1;resizable=1;rotatable=1;deletable=1;editable=1;locked=0;connectable=1;" vertex="1" parent="1">
          <mxGeometry x="423.335" y="350.84" width="6.665" height="6.665" as="geometry" />
        </mxCell>
        <mxCell id="SwZNiAvCX6HAkOTveVuw-276" value="" style="whiteSpace=wrap;html=1;aspect=fixed;fillColor=#000000;movable=1;resizable=1;rotatable=1;deletable=1;editable=1;locked=0;connectable=1;" vertex="1" parent="1">
          <mxGeometry x="417.67" y="344.17999999999995" width="6.665" height="6.665" as="geometry" />
        </mxCell>
        <mxCell id="SwZNiAvCX6HAkOTveVuw-277" value="" style="whiteSpace=wrap;html=1;aspect=fixed;fillColor=#000000;movable=1;resizable=1;rotatable=1;deletable=1;editable=1;locked=0;connectable=1;" vertex="1" parent="1">
          <mxGeometry x="417.67" y="357.5199999999999" width="6.665" height="6.665" as="geometry" />
        </mxCell>
        <mxCell id="SwZNiAvCX6HAkOTveVuw-278" value="" style="endArrow=none;html=1;rounded=0;" edge="1" parent="1">
          <mxGeometry width="50" height="50" relative="1" as="geometry">
            <mxPoint x="424" y="343.84" as="sourcePoint" />
            <mxPoint x="424" y="335.84" as="targetPoint" />
          </mxGeometry>
        </mxCell>
        <mxCell id="SwZNiAvCX6HAkOTveVuw-279" value="" style="endArrow=none;html=1;rounded=0;" edge="1" parent="1">
          <mxGeometry width="50" height="50" relative="1" as="geometry">
            <mxPoint x="407" y="350.84" as="sourcePoint" />
            <mxPoint x="417" y="350.84" as="targetPoint" />
          </mxGeometry>
        </mxCell>
        <mxCell id="SwZNiAvCX6HAkOTveVuw-280" value="" style="endArrow=none;html=1;rounded=0;" edge="1" parent="1">
          <mxGeometry width="50" height="50" relative="1" as="geometry">
            <mxPoint x="407" y="357.8" as="sourcePoint" />
            <mxPoint x="417" y="357.8" as="targetPoint" />
          </mxGeometry>
        </mxCell>
        <mxCell id="SwZNiAvCX6HAkOTveVuw-281" value="" style="endArrow=none;html=1;rounded=0;" edge="1" parent="1" source="SwZNiAvCX6HAkOTveVuw-287">
          <mxGeometry width="50" height="50" relative="1" as="geometry">
            <mxPoint x="430" y="343.84" as="sourcePoint" />
            <mxPoint x="430" y="335.84" as="targetPoint" />
          </mxGeometry>
        </mxCell>
        <mxCell id="SwZNiAvCX6HAkOTveVuw-282" value="" style="endArrow=none;html=1;rounded=0;" edge="1" parent="1">
          <mxGeometry width="50" height="50" relative="1" as="geometry">
            <mxPoint x="417" y="343.84" as="sourcePoint" />
            <mxPoint x="417" y="335.84" as="targetPoint" />
          </mxGeometry>
        </mxCell>
        <mxCell id="SwZNiAvCX6HAkOTveVuw-283" value="" style="endArrow=none;html=1;rounded=0;" edge="1" parent="1">
          <mxGeometry width="50" height="50" relative="1" as="geometry">
            <mxPoint x="407" y="364.84" as="sourcePoint" />
            <mxPoint x="417" y="364.84" as="targetPoint" />
          </mxGeometry>
        </mxCell>
        <mxCell id="SwZNiAvCX6HAkOTveVuw-284" value="" style="endArrow=none;html=1;rounded=0;" edge="1" parent="1">
          <mxGeometry width="50" height="50" relative="1" as="geometry">
            <mxPoint x="407" y="343.84" as="sourcePoint" />
            <mxPoint x="417" y="343.84" as="targetPoint" />
          </mxGeometry>
        </mxCell>
        <mxCell id="SwZNiAvCX6HAkOTveVuw-285" value="&lt;div style=&quot;line-height: 0%;&quot;&gt;&lt;font style=&quot;font-size: 2px;&quot;&gt;1&lt;/font&gt;&lt;div&gt;&lt;font style=&quot;font-size: 2px;&quot;&gt;2&lt;/font&gt;&lt;/div&gt;&lt;/div&gt;" style="text;html=1;align=center;verticalAlign=middle;whiteSpace=wrap;rounded=0;" vertex="1" parent="1">
          <mxGeometry x="417.33" y="330.84" width="6" height="13.34" as="geometry" />
        </mxCell>
        <mxCell id="SwZNiAvCX6HAkOTveVuw-286" value="" style="endArrow=none;html=1;rounded=0;" edge="1" parent="1" target="SwZNiAvCX6HAkOTveVuw-287">
          <mxGeometry width="50" height="50" relative="1" as="geometry">
            <mxPoint x="430" y="343.84" as="sourcePoint" />
            <mxPoint x="430" y="335.84" as="targetPoint" />
          </mxGeometry>
        </mxCell>
        <mxCell id="SwZNiAvCX6HAkOTveVuw-287" value="&lt;div style=&quot;line-height: 0%;&quot;&gt;&lt;font style=&quot;font-size: 2px;&quot;&gt;1&lt;/font&gt;&lt;div&gt;&lt;font style=&quot;font-size: 2px;&quot;&gt;2&lt;/font&gt;&lt;/div&gt;&lt;/div&gt;" style="text;html=1;align=center;verticalAlign=middle;whiteSpace=wrap;rounded=0;" vertex="1" parent="1">
          <mxGeometry x="424" y="330.84" width="6" height="13.34" as="geometry" />
        </mxCell>
        <mxCell id="SwZNiAvCX6HAkOTveVuw-288" value="&lt;div style=&quot;line-height: 0%;&quot;&gt;&lt;font style=&quot;font-size: 2px;&quot;&gt;1&amp;nbsp; &amp;nbsp;&lt;/font&gt;&lt;span style=&quot;font-size: 2px; background-color: transparent; color: light-dark(rgb(0, 0, 0), rgb(255, 255, 255));&quot;&gt;2&lt;/span&gt;&lt;/div&gt;" style="text;html=1;align=center;verticalAlign=middle;whiteSpace=wrap;rounded=0;" vertex="1" parent="1">
          <mxGeometry x="411.33" y="337.5" width="6" height="13.34" as="geometry" />
        </mxCell>
        <mxCell id="SwZNiAvCX6HAkOTveVuw-289" value="&lt;div style=&quot;line-height: 0%;&quot;&gt;&lt;font style=&quot;font-size: 2px;&quot;&gt;1&amp;nbsp; &amp;nbsp;&lt;/font&gt;&lt;span style=&quot;font-size: 2px; background-color: transparent; color: light-dark(rgb(0, 0, 0), rgb(255, 255, 255));&quot;&gt;2&lt;/span&gt;&lt;/div&gt;" style="text;html=1;align=center;verticalAlign=middle;whiteSpace=wrap;rounded=0;" vertex="1" parent="1">
          <mxGeometry x="411.33" y="343.84" width="6" height="13.34" as="geometry" />
        </mxCell>
        <mxCell id="SwZNiAvCX6HAkOTveVuw-290" value="&lt;div style=&quot;line-height: 0%;&quot;&gt;&lt;font style=&quot;font-size: 2px;&quot;&gt;1&amp;nbsp; &amp;nbsp;&lt;/font&gt;&lt;span style=&quot;font-size: 2px; background-color: transparent; color: light-dark(rgb(0, 0, 0), rgb(255, 255, 255));&quot;&gt;2&lt;/span&gt;&lt;/div&gt;" style="text;html=1;align=center;verticalAlign=middle;whiteSpace=wrap;rounded=0;" vertex="1" parent="1">
          <mxGeometry x="411.33" y="350.84999999999997" width="6" height="13.34" as="geometry" />
        </mxCell>
        <mxCell id="SwZNiAvCX6HAkOTveVuw-291" value="" style="rounded=0;whiteSpace=wrap;html=1;rotation=90;movable=1;resizable=1;rotatable=1;deletable=1;editable=1;locked=0;connectable=1;" vertex="1" parent="1">
          <mxGeometry x="463.6675" y="354.1666666666667" width="19.995" height="13.333333333333332" as="geometry" />
        </mxCell>
        <mxCell id="SwZNiAvCX6HAkOTveVuw-292" value="" style="whiteSpace=wrap;html=1;aspect=fixed;fillColor=#000000;movable=1;resizable=1;rotatable=1;deletable=1;editable=1;locked=0;connectable=1;" vertex="1" parent="1">
          <mxGeometry x="473.335" y="357.5" width="6.665" height="6.665" as="geometry" />
        </mxCell>
        <mxCell id="SwZNiAvCX6HAkOTveVuw-293" value="" style="whiteSpace=wrap;html=1;aspect=fixed;fillColor=#000000;movable=1;resizable=1;rotatable=1;deletable=1;editable=1;locked=0;connectable=1;" vertex="1" parent="1">
          <mxGeometry x="473.33000000000004" y="351.21999999999997" width="6.665" height="6.665" as="geometry" />
        </mxCell>
        <mxCell id="SwZNiAvCX6HAkOTveVuw-294" value="" style="whiteSpace=wrap;html=1;aspect=fixed;fillColor=#000000;movable=1;resizable=1;rotatable=1;deletable=1;editable=1;locked=0;connectable=1;" vertex="1" parent="1">
          <mxGeometry x="467.67" y="364.17999999999995" width="6.665" height="6.665" as="geometry" />
        </mxCell>
        <mxCell id="SwZNiAvCX6HAkOTveVuw-295" value="" style="endArrow=none;html=1;rounded=0;" edge="1" parent="1">
          <mxGeometry width="50" height="50" relative="1" as="geometry">
            <mxPoint x="474" y="350.5" as="sourcePoint" />
            <mxPoint x="474" y="342.5" as="targetPoint" />
          </mxGeometry>
        </mxCell>
        <mxCell id="SwZNiAvCX6HAkOTveVuw-296" value="" style="endArrow=none;html=1;rounded=0;" edge="1" parent="1">
          <mxGeometry width="50" height="50" relative="1" as="geometry">
            <mxPoint x="457" y="357.5" as="sourcePoint" />
            <mxPoint x="467" y="357.5" as="targetPoint" />
          </mxGeometry>
        </mxCell>
        <mxCell id="SwZNiAvCX6HAkOTveVuw-297" value="" style="endArrow=none;html=1;rounded=0;" edge="1" parent="1">
          <mxGeometry width="50" height="50" relative="1" as="geometry">
            <mxPoint x="457" y="364.46000000000004" as="sourcePoint" />
            <mxPoint x="467" y="364.46000000000004" as="targetPoint" />
          </mxGeometry>
        </mxCell>
        <mxCell id="SwZNiAvCX6HAkOTveVuw-298" value="" style="endArrow=none;html=1;rounded=0;" edge="1" parent="1" source="SwZNiAvCX6HAkOTveVuw-304">
          <mxGeometry width="50" height="50" relative="1" as="geometry">
            <mxPoint x="480" y="350.5" as="sourcePoint" />
            <mxPoint x="480" y="342.5" as="targetPoint" />
          </mxGeometry>
        </mxCell>
        <mxCell id="SwZNiAvCX6HAkOTveVuw-299" value="" style="endArrow=none;html=1;rounded=0;" edge="1" parent="1">
          <mxGeometry width="50" height="50" relative="1" as="geometry">
            <mxPoint x="467" y="350.5" as="sourcePoint" />
            <mxPoint x="467" y="342.5" as="targetPoint" />
          </mxGeometry>
        </mxCell>
        <mxCell id="SwZNiAvCX6HAkOTveVuw-300" value="" style="endArrow=none;html=1;rounded=0;" edge="1" parent="1">
          <mxGeometry width="50" height="50" relative="1" as="geometry">
            <mxPoint x="457" y="371.5" as="sourcePoint" />
            <mxPoint x="467" y="371.5" as="targetPoint" />
          </mxGeometry>
        </mxCell>
        <mxCell id="SwZNiAvCX6HAkOTveVuw-301" value="" style="endArrow=none;html=1;rounded=0;" edge="1" parent="1">
          <mxGeometry width="50" height="50" relative="1" as="geometry">
            <mxPoint x="457" y="350.5" as="sourcePoint" />
            <mxPoint x="467" y="350.5" as="targetPoint" />
          </mxGeometry>
        </mxCell>
        <mxCell id="SwZNiAvCX6HAkOTveVuw-302" value="&lt;div style=&quot;line-height: 0%;&quot;&gt;&lt;font style=&quot;font-size: 2px;&quot;&gt;1&lt;/font&gt;&lt;div&gt;&lt;font style=&quot;font-size: 2px;&quot;&gt;2&lt;/font&gt;&lt;/div&gt;&lt;/div&gt;" style="text;html=1;align=center;verticalAlign=middle;whiteSpace=wrap;rounded=0;" vertex="1" parent="1">
          <mxGeometry x="467.33" y="337.5" width="6" height="13.34" as="geometry" />
        </mxCell>
        <mxCell id="SwZNiAvCX6HAkOTveVuw-303" value="" style="endArrow=none;html=1;rounded=0;" edge="1" parent="1" target="SwZNiAvCX6HAkOTveVuw-304">
          <mxGeometry width="50" height="50" relative="1" as="geometry">
            <mxPoint x="480" y="350.5" as="sourcePoint" />
            <mxPoint x="480" y="342.5" as="targetPoint" />
          </mxGeometry>
        </mxCell>
        <mxCell id="SwZNiAvCX6HAkOTveVuw-304" value="&lt;div style=&quot;line-height: 0%;&quot;&gt;&lt;font style=&quot;font-size: 2px;&quot;&gt;1&lt;/font&gt;&lt;div&gt;&lt;font style=&quot;font-size: 2px;&quot;&gt;2&lt;/font&gt;&lt;/div&gt;&lt;/div&gt;" style="text;html=1;align=center;verticalAlign=middle;whiteSpace=wrap;rounded=0;" vertex="1" parent="1">
          <mxGeometry x="474" y="337.5" width="6" height="13.34" as="geometry" />
        </mxCell>
        <mxCell id="SwZNiAvCX6HAkOTveVuw-305" value="&lt;div style=&quot;line-height: 0%;&quot;&gt;&lt;font style=&quot;font-size: 2px;&quot;&gt;1&amp;nbsp; &amp;nbsp;&lt;/font&gt;&lt;span style=&quot;font-size: 2px; background-color: transparent; color: light-dark(rgb(0, 0, 0), rgb(255, 255, 255));&quot;&gt;2&lt;/span&gt;&lt;/div&gt;" style="text;html=1;align=center;verticalAlign=middle;whiteSpace=wrap;rounded=0;" vertex="1" parent="1">
          <mxGeometry x="461.33" y="344.16" width="6" height="13.34" as="geometry" />
        </mxCell>
        <mxCell id="SwZNiAvCX6HAkOTveVuw-306" value="&lt;div style=&quot;line-height: 0%;&quot;&gt;&lt;font style=&quot;font-size: 2px;&quot;&gt;1&amp;nbsp; &amp;nbsp;&lt;/font&gt;&lt;span style=&quot;font-size: 2px; background-color: transparent; color: light-dark(rgb(0, 0, 0), rgb(255, 255, 255));&quot;&gt;2&lt;/span&gt;&lt;/div&gt;" style="text;html=1;align=center;verticalAlign=middle;whiteSpace=wrap;rounded=0;" vertex="1" parent="1">
          <mxGeometry x="461.33" y="350.5" width="6" height="13.34" as="geometry" />
        </mxCell>
        <mxCell id="SwZNiAvCX6HAkOTveVuw-307" value="&lt;div style=&quot;line-height: 0%;&quot;&gt;&lt;font style=&quot;font-size: 2px;&quot;&gt;1&amp;nbsp; &amp;nbsp;&lt;/font&gt;&lt;span style=&quot;font-size: 2px; background-color: transparent; color: light-dark(rgb(0, 0, 0), rgb(255, 255, 255));&quot;&gt;2&lt;/span&gt;&lt;/div&gt;" style="text;html=1;align=center;verticalAlign=middle;whiteSpace=wrap;rounded=0;" vertex="1" parent="1">
          <mxGeometry x="461.33" y="357.51" width="6" height="13.34" as="geometry" />
        </mxCell>
        <mxCell id="SwZNiAvCX6HAkOTveVuw-308" value="" style="whiteSpace=wrap;html=1;aspect=fixed;fillColor=#000000;movable=1;resizable=1;rotatable=1;deletable=1;editable=1;locked=0;connectable=1;" vertex="1" parent="1">
          <mxGeometry x="473.33" y="363.84000000000003" width="6.665" height="6.665" as="geometry" />
        </mxCell>
        <mxCell id="SwZNiAvCX6HAkOTveVuw-309" value="" style="whiteSpace=wrap;html=1;aspect=fixed;fillColor=none;movable=1;resizable=1;rotatable=1;deletable=1;editable=1;locked=0;connectable=1;" vertex="1" parent="1">
          <mxGeometry x="467" y="350.5" width="6.665" height="6.665" as="geometry" />
        </mxCell>
        <mxCell id="SwZNiAvCX6HAkOTveVuw-310" value="" style="rounded=0;whiteSpace=wrap;html=1;rotation=90;movable=1;resizable=1;rotatable=1;deletable=1;editable=1;locked=0;connectable=1;" vertex="1" parent="1">
          <mxGeometry x="413.6675" y="382.5066666666667" width="19.995" height="13.333333333333332" as="geometry" />
        </mxCell>
        <mxCell id="SwZNiAvCX6HAkOTveVuw-311" value="" style="whiteSpace=wrap;html=1;aspect=fixed;fillColor=#000000;movable=1;resizable=1;rotatable=1;deletable=1;editable=1;locked=0;connectable=1;" vertex="1" parent="1">
          <mxGeometry x="423.335" y="385.84" width="6.665" height="6.665" as="geometry" />
        </mxCell>
        <mxCell id="SwZNiAvCX6HAkOTveVuw-312" value="" style="whiteSpace=wrap;html=1;aspect=fixed;fillColor=#000000;movable=1;resizable=1;rotatable=1;deletable=1;editable=1;locked=0;connectable=1;" vertex="1" parent="1">
          <mxGeometry x="417.67" y="379.1799999999999" width="6.665" height="6.665" as="geometry" />
        </mxCell>
        <mxCell id="SwZNiAvCX6HAkOTveVuw-313" value="" style="whiteSpace=wrap;html=1;aspect=fixed;fillColor=#000000;movable=1;resizable=1;rotatable=1;deletable=1;editable=1;locked=0;connectable=1;" vertex="1" parent="1">
          <mxGeometry x="417.67" y="392.5199999999999" width="6.665" height="6.665" as="geometry" />
        </mxCell>
        <mxCell id="SwZNiAvCX6HAkOTveVuw-314" value="" style="endArrow=none;html=1;rounded=0;" edge="1" parent="1">
          <mxGeometry width="50" height="50" relative="1" as="geometry">
            <mxPoint x="424" y="378.84" as="sourcePoint" />
            <mxPoint x="424" y="370.84" as="targetPoint" />
          </mxGeometry>
        </mxCell>
        <mxCell id="SwZNiAvCX6HAkOTveVuw-315" value="" style="endArrow=none;html=1;rounded=0;" edge="1" parent="1">
          <mxGeometry width="50" height="50" relative="1" as="geometry">
            <mxPoint x="407" y="385.84" as="sourcePoint" />
            <mxPoint x="417" y="385.84" as="targetPoint" />
          </mxGeometry>
        </mxCell>
        <mxCell id="SwZNiAvCX6HAkOTveVuw-316" value="" style="endArrow=none;html=1;rounded=0;" edge="1" parent="1">
          <mxGeometry width="50" height="50" relative="1" as="geometry">
            <mxPoint x="407" y="392.8" as="sourcePoint" />
            <mxPoint x="417" y="392.8" as="targetPoint" />
          </mxGeometry>
        </mxCell>
        <mxCell id="SwZNiAvCX6HAkOTveVuw-317" value="" style="endArrow=none;html=1;rounded=0;" edge="1" parent="1">
          <mxGeometry width="50" height="50" relative="1" as="geometry">
            <mxPoint x="430" y="370.84" as="sourcePoint" />
            <mxPoint x="430" y="370.84" as="targetPoint" />
          </mxGeometry>
        </mxCell>
        <mxCell id="SwZNiAvCX6HAkOTveVuw-318" value="" style="endArrow=none;html=1;rounded=0;" edge="1" parent="1">
          <mxGeometry width="50" height="50" relative="1" as="geometry">
            <mxPoint x="417" y="378.84" as="sourcePoint" />
            <mxPoint x="417" y="370.84" as="targetPoint" />
          </mxGeometry>
        </mxCell>
        <mxCell id="SwZNiAvCX6HAkOTveVuw-319" value="" style="endArrow=none;html=1;rounded=0;" edge="1" parent="1">
          <mxGeometry width="50" height="50" relative="1" as="geometry">
            <mxPoint x="407" y="399.84" as="sourcePoint" />
            <mxPoint x="417" y="399.84" as="targetPoint" />
          </mxGeometry>
        </mxCell>
        <mxCell id="SwZNiAvCX6HAkOTveVuw-320" value="" style="endArrow=none;html=1;rounded=0;" edge="1" parent="1">
          <mxGeometry width="50" height="50" relative="1" as="geometry">
            <mxPoint x="407" y="378.84" as="sourcePoint" />
            <mxPoint x="417" y="378.84" as="targetPoint" />
          </mxGeometry>
        </mxCell>
        <mxCell id="SwZNiAvCX6HAkOTveVuw-321" value="" style="endArrow=none;html=1;rounded=0;" edge="1" parent="1">
          <mxGeometry width="50" height="50" relative="1" as="geometry">
            <mxPoint x="430" y="378.84" as="sourcePoint" />
            <mxPoint x="430" y="378.84" as="targetPoint" />
          </mxGeometry>
        </mxCell>
        <mxCell id="SwZNiAvCX6HAkOTveVuw-322" value="&lt;div style=&quot;line-height: 0%;&quot;&gt;&lt;font style=&quot;font-size: 2px;&quot;&gt;1&amp;nbsp; &amp;nbsp;&lt;/font&gt;&lt;span style=&quot;font-size: 2px; background-color: transparent; color: light-dark(rgb(0, 0, 0), rgb(255, 255, 255));&quot;&gt;2&lt;/span&gt;&lt;/div&gt;" style="text;html=1;align=center;verticalAlign=middle;whiteSpace=wrap;rounded=0;" vertex="1" parent="1">
          <mxGeometry x="411.33" y="372.50000000000006" width="6" height="13.34" as="geometry" />
        </mxCell>
        <mxCell id="SwZNiAvCX6HAkOTveVuw-323" value="&lt;div style=&quot;line-height: 0%;&quot;&gt;&lt;font style=&quot;font-size: 2px;&quot;&gt;1&amp;nbsp; &amp;nbsp;&lt;/font&gt;&lt;span style=&quot;font-size: 2px; background-color: transparent; color: light-dark(rgb(0, 0, 0), rgb(255, 255, 255));&quot;&gt;2&lt;/span&gt;&lt;/div&gt;" style="text;html=1;align=center;verticalAlign=middle;whiteSpace=wrap;rounded=0;" vertex="1" parent="1">
          <mxGeometry x="411.33" y="378.84" width="6" height="13.34" as="geometry" />
        </mxCell>
        <mxCell id="SwZNiAvCX6HAkOTveVuw-324" value="&lt;div style=&quot;line-height: 0%;&quot;&gt;&lt;font style=&quot;font-size: 2px;&quot;&gt;1&amp;nbsp; &amp;nbsp;&lt;/font&gt;&lt;span style=&quot;font-size: 2px; background-color: transparent; color: light-dark(rgb(0, 0, 0), rgb(255, 255, 255));&quot;&gt;2&lt;/span&gt;&lt;/div&gt;" style="text;html=1;align=center;verticalAlign=middle;whiteSpace=wrap;rounded=0;" vertex="1" parent="1">
          <mxGeometry x="411.33" y="385.84999999999997" width="6" height="13.34" as="geometry" />
        </mxCell>
        <mxCell id="SwZNiAvCX6HAkOTveVuw-325" value="" style="rounded=0;whiteSpace=wrap;html=1;rotation=90;movable=1;resizable=1;rotatable=1;deletable=1;editable=1;locked=0;connectable=1;" vertex="1" parent="1">
          <mxGeometry x="463.6675" y="387.17666666666673" width="19.995" height="13.333333333333332" as="geometry" />
        </mxCell>
        <mxCell id="SwZNiAvCX6HAkOTveVuw-326" value="" style="whiteSpace=wrap;html=1;aspect=fixed;fillColor=#000000;movable=1;resizable=1;rotatable=1;deletable=1;editable=1;locked=0;connectable=1;" vertex="1" parent="1">
          <mxGeometry x="473.335" y="390.51" width="6.665" height="6.665" as="geometry" />
        </mxCell>
        <mxCell id="SwZNiAvCX6HAkOTveVuw-327" value="" style="endArrow=none;html=1;rounded=0;" edge="1" parent="1">
          <mxGeometry width="50" height="50" relative="1" as="geometry">
            <mxPoint x="474" y="383.51" as="sourcePoint" />
            <mxPoint x="474" y="375.51" as="targetPoint" />
          </mxGeometry>
        </mxCell>
        <mxCell id="SwZNiAvCX6HAkOTveVuw-328" value="" style="endArrow=none;html=1;rounded=0;" edge="1" parent="1">
          <mxGeometry width="50" height="50" relative="1" as="geometry">
            <mxPoint x="457" y="390.51" as="sourcePoint" />
            <mxPoint x="467" y="390.51" as="targetPoint" />
          </mxGeometry>
        </mxCell>
        <mxCell id="SwZNiAvCX6HAkOTveVuw-329" value="" style="endArrow=none;html=1;rounded=0;" edge="1" parent="1">
          <mxGeometry width="50" height="50" relative="1" as="geometry">
            <mxPoint x="457" y="397.47" as="sourcePoint" />
            <mxPoint x="467" y="397.47" as="targetPoint" />
          </mxGeometry>
        </mxCell>
        <mxCell id="SwZNiAvCX6HAkOTveVuw-330" value="" style="endArrow=none;html=1;rounded=0;" edge="1" parent="1" source="SwZNiAvCX6HAkOTveVuw-336">
          <mxGeometry width="50" height="50" relative="1" as="geometry">
            <mxPoint x="480" y="383.51" as="sourcePoint" />
            <mxPoint x="480" y="375.51" as="targetPoint" />
          </mxGeometry>
        </mxCell>
        <mxCell id="SwZNiAvCX6HAkOTveVuw-331" value="" style="endArrow=none;html=1;rounded=0;" edge="1" parent="1">
          <mxGeometry width="50" height="50" relative="1" as="geometry">
            <mxPoint x="467" y="383.51" as="sourcePoint" />
            <mxPoint x="467" y="375.51" as="targetPoint" />
          </mxGeometry>
        </mxCell>
        <mxCell id="SwZNiAvCX6HAkOTveVuw-332" value="" style="endArrow=none;html=1;rounded=0;" edge="1" parent="1">
          <mxGeometry width="50" height="50" relative="1" as="geometry">
            <mxPoint x="457" y="404.51" as="sourcePoint" />
            <mxPoint x="467" y="404.51" as="targetPoint" />
          </mxGeometry>
        </mxCell>
        <mxCell id="SwZNiAvCX6HAkOTveVuw-333" value="" style="endArrow=none;html=1;rounded=0;" edge="1" parent="1">
          <mxGeometry width="50" height="50" relative="1" as="geometry">
            <mxPoint x="457" y="383.51" as="sourcePoint" />
            <mxPoint x="467" y="383.51" as="targetPoint" />
          </mxGeometry>
        </mxCell>
        <mxCell id="SwZNiAvCX6HAkOTveVuw-334" value="&lt;div style=&quot;line-height: 0%;&quot;&gt;&lt;font style=&quot;font-size: 2px;&quot;&gt;1&lt;/font&gt;&lt;div&gt;&lt;font style=&quot;font-size: 2px;&quot;&gt;2&lt;/font&gt;&lt;/div&gt;&lt;/div&gt;" style="text;html=1;align=center;verticalAlign=middle;whiteSpace=wrap;rounded=0;" vertex="1" parent="1">
          <mxGeometry x="467.33" y="370.51" width="6" height="13.34" as="geometry" />
        </mxCell>
        <mxCell id="SwZNiAvCX6HAkOTveVuw-335" value="" style="endArrow=none;html=1;rounded=0;" edge="1" parent="1" target="SwZNiAvCX6HAkOTveVuw-336">
          <mxGeometry width="50" height="50" relative="1" as="geometry">
            <mxPoint x="480" y="383.51" as="sourcePoint" />
            <mxPoint x="480" y="375.51" as="targetPoint" />
          </mxGeometry>
        </mxCell>
        <mxCell id="SwZNiAvCX6HAkOTveVuw-336" value="&lt;div style=&quot;line-height: 0%;&quot;&gt;&lt;font style=&quot;font-size: 2px;&quot;&gt;1&lt;/font&gt;&lt;div&gt;&lt;font style=&quot;font-size: 2px;&quot;&gt;2&lt;/font&gt;&lt;/div&gt;&lt;/div&gt;" style="text;html=1;align=center;verticalAlign=middle;whiteSpace=wrap;rounded=0;" vertex="1" parent="1">
          <mxGeometry x="474" y="370.51" width="6" height="13.34" as="geometry" />
        </mxCell>
        <mxCell id="SwZNiAvCX6HAkOTveVuw-337" value="&lt;div style=&quot;line-height: 0%;&quot;&gt;&lt;font style=&quot;font-size: 2px;&quot;&gt;1&amp;nbsp; &amp;nbsp;&lt;/font&gt;&lt;span style=&quot;font-size: 2px; background-color: transparent; color: light-dark(rgb(0, 0, 0), rgb(255, 255, 255));&quot;&gt;2&lt;/span&gt;&lt;/div&gt;" style="text;html=1;align=center;verticalAlign=middle;whiteSpace=wrap;rounded=0;" vertex="1" parent="1">
          <mxGeometry x="461.33" y="377.1700000000001" width="6" height="13.34" as="geometry" />
        </mxCell>
        <mxCell id="SwZNiAvCX6HAkOTveVuw-338" value="&lt;div style=&quot;line-height: 0%;&quot;&gt;&lt;font style=&quot;font-size: 2px;&quot;&gt;1&amp;nbsp; &amp;nbsp;&lt;/font&gt;&lt;span style=&quot;font-size: 2px; background-color: transparent; color: light-dark(rgb(0, 0, 0), rgb(255, 255, 255));&quot;&gt;2&lt;/span&gt;&lt;/div&gt;" style="text;html=1;align=center;verticalAlign=middle;whiteSpace=wrap;rounded=0;" vertex="1" parent="1">
          <mxGeometry x="461.33" y="383.51" width="6" height="13.34" as="geometry" />
        </mxCell>
        <mxCell id="SwZNiAvCX6HAkOTveVuw-339" value="&lt;div style=&quot;line-height: 0%;&quot;&gt;&lt;font style=&quot;font-size: 2px;&quot;&gt;1&amp;nbsp; &amp;nbsp;&lt;/font&gt;&lt;span style=&quot;font-size: 2px; background-color: transparent; color: light-dark(rgb(0, 0, 0), rgb(255, 255, 255));&quot;&gt;2&lt;/span&gt;&lt;/div&gt;" style="text;html=1;align=center;verticalAlign=middle;whiteSpace=wrap;rounded=0;" vertex="1" parent="1">
          <mxGeometry x="461.33" y="390.52" width="6" height="13.34" as="geometry" />
        </mxCell>
        <mxCell id="SwZNiAvCX6HAkOTveVuw-340" value="" style="whiteSpace=wrap;html=1;aspect=fixed;fillColor=#000000;movable=1;resizable=1;rotatable=1;deletable=1;editable=1;locked=0;connectable=1;" vertex="1" parent="1">
          <mxGeometry x="473.33" y="396.85" width="6.665" height="6.665" as="geometry" />
        </mxCell>
        <mxCell id="SwZNiAvCX6HAkOTveVuw-341" value="" style="whiteSpace=wrap;html=1;aspect=fixed;fillColor=none;movable=1;resizable=1;rotatable=1;deletable=1;editable=1;locked=0;connectable=1;" vertex="1" parent="1">
          <mxGeometry x="467" y="383.51" width="6.665" height="6.665" as="geometry" />
        </mxCell>
        <mxCell id="SwZNiAvCX6HAkOTveVuw-342" value="" style="whiteSpace=wrap;html=1;aspect=fixed;fillColor=none;movable=1;resizable=1;rotatable=1;deletable=1;editable=1;locked=0;connectable=1;" vertex="1" parent="1">
          <mxGeometry x="466.66999999999996" y="390.17999999999995" width="6.665" height="6.665" as="geometry" />
        </mxCell>
        <mxCell id="SwZNiAvCX6HAkOTveVuw-346" value="" style="shape=image;verticalLabelPosition=bottom;labelBackgroundColor=default;verticalAlign=top;aspect=fixed;imageAspect=0;image=data:image/png,iVBORw0KGgoAAAANSUhEUgAAAMwAAAD2CAMAAACtHZgLAAAAwFBMVEX/////AAAmJiYAAABOTk4iIiKoqKgREREJCQnOzs4aGhq+vr4eHh7r6+sYGBihoaGGhoZeXl55eXlLS0vx8fE0NDRjY2PHx8eVlZW2trb5+fn/o6PZ2dnl5eX/UVH/8PA9PT3/4eF+fn7/xMT/nJz/2dn/gIBtbW3/Rkb/ior/t7f/7Ozd3d0tLS05OTmQkJD/Li7/Wlr/k5P/b2//wcH/Ozv/IiL/h4f/fHz/q6v/WVn/Zmb/ERH/z8//SEj/qalSxQmMAAAMdklEQVR4nO2dfV/aPBSGC6G0lFoEqrwIguhkOhlOJ5uPbvv+3+qh0LRpm5dTmibVH/efSkIu2iZ3Tk5Sw6DIH3QW3bO6Cs07tAZIk99sINtzTCUsdRMty0OZLG3bVcMRyl6UhOIvkaOUJBAalsLS0YAS0JTw3PgNpAMloBnJZml5ap+VBE1bLssAJfov07PsMpW6n1FLLgtRtYO8xro5apeo0ySNiR7ksUwIFs/uDcbyqqZrZCUvjWmdyKraN834N1pIq5ajZgqmbtZ9SVU3ootuzSVeb44wzCr6Zve7nNuhE91kqCelQrFCGLPbjr7b6cuo+CRmKWcwpgjD9I1m9O1eV0LFS0c5CwFjDCMaq7jpnOLKrLIsH0UEjHEa0RQ3nb3wwpjz4m0Ei4QxenZ0n6+LVevjmtBERiuBSsAY51FHXdB0jkIYR1VHtlMSxmh4EU0h09kN/SWaymgkVCmY8Twab4qYznH49LnncloJVArGGK8iz17AdGJXZkt24QKlYQzfxY7KtA82IdhXWLKsUa6vjWGMqRXRHGw61476ftmgwRDO3TQP/GWXroa+jApjtCIa9+ww09nfX1yr3GBcRjQYo7DprBIMaTobh9TaCGGaUtoI1ogKQ0xGrEOGimrBkKbzgKdYF4zN6EQLmU7NMN8z/yFMZ+7plSaYdgizorQoNp15G6UJZhDeTSZlQOnHpjOnhdYEgwdIiwIzPotN5yBXrZpgHkIYRBvq/XipK9+MURMMjgghqqckTGeuaZYmGN/j/vITO6Jxc1hoTTDjVTg0Mh4K0nTCLbQmGGO+/16b1V8RpnMOrlQXTBh68JjDPGE6wRZaF8xiP5hw5lEHmE5dMHgOMGd/ZJ3bdOqCwRYAcT5DmM5TUKW6YHCEmzsqLnOaTl0wRmjA+F/czWc6tcGE3ZnLX8bo54p0aoMZhreQzf3U+HueSKc2mBYslOrXc5hObTAGDnILFv9OzDhuKzKd+mCWePlBEFp+iC10XWA69cFg9+WIVjLhkU59MAZ+tIXTyQHUdGqEWeNBRLgCMQJGOjXCRPkH7lwUJ+/Altc1whgLfGnclaifGoJMp04YP16REa4yLyCmUycMMQGr26sR/15bApbXtcIY55GR3A6Jbq/NG0eIuC3rY3phjDmZGOrYaNVdN0ethxOfcpnwIj87cKAZxl8l01xN17NshGzbsryU4kRI5sqYZhjDn6dzAsWqLMx2cpzM2/3YMEbbzXlxqgwTTNRy7aaoNszWfTWQDd7mUnWYrVMb9c5QsHPHFTJVHyaQ3xqte406wkon3ZsfCQZrfDJ9mExag3Z7RKo9F2RgVBKGpcYRpqI6wlRVR5iq6ghTVR1hqqojTFV1hKmqjjBV1RGmqjrCpDVZ9rJarJutZKx+kf3M6brZnmSXLGn17QuUD9NGDkWehewuuVK88rKf2QX156epVBFqfVtZ/J0mUmAG0RpcWi7qx8uRZ6zwnemhVeILWEePCDZYlQwT4EQXhwkT8KA+cbexYASPbukwRLoRD2ZLbcbXkAXDygxWB2PWxxCYuruK+gsWjCC/XAFM3RqCYOpelJDAgnFhuTFlwuCsURFMnMDEgBHtFlUCEybACWGiBCYGjGiDtXwYN1j6TS50OYsMjBmuESc/iFN+SBgzXlAW5chKh3F7w+FwvXTIVppnaRhzPtxpvbTIs39wDiMBYzaGkdaCNEzpMHb4hV2SBqVhiBtmSdDgQZGAcXKcmyEfJhwKRuStt08AocNMycswz8Lk2I9ZGkziOdp3U3SYxAMS7jGrNsyEA5P44DQDU4Xb7DCYsDQB4/b8EyxRQmDVYNppmK1TjSSaISqCmQJhwu+hD5rC6W55vRmZ8IJ8KEynWjD7ccZPeBfPgMIMKwXjdoO5ejeRVxXm8wNgvGrB1N1gsp6yXB0oTMWuDE2htf94zwxF2KRAuuZR1WHwtv2PN85k5eJgF8TOtNIw7nlrgAXd7FMejBnlTENg/DSMVm+WlmNHW8HoMGNyChCemVEV15xCQedxLjsdhjzMFP+5MjCOFcq2kdUjd+iRMN2xH2jaWpO2BzejKjDO6ai512iQ2vqWDWhYCMVbF+pxrKkqMDY76CAMNUVxscrAsMPBQphoe8UngInP//kEMPHu5I8PQ2yv+ugwLum8PjaMg7pkP64VhvhyzuZdKkyw8QqhXnL7O3k+vGqYNiIi9WyYVXafmFs/a5w2Mxv5yfpUw+ytSSh2pM7PivFhWH3Mxh4zNKqmI0xVdYSpqj4VTN/9RDCdOnI/DczWi3SR82lgDGPaQ8yjGj4cjGGcLD8RzNYrMv7+IWFYOsKUp6vrf7fPl4/vtVpt8/jydvvv+luO0tWBmV0/XdZoury7Bs55KgIzu6eDYP14nQFqqQTM9Q8uScjzU1iPfpjxDYBkp/cLwe2mG2b8BEXZ6YmLoxkGfFUi/ePUphXm+j03S632+IVZn0aYGeSxp+k3q0Z9MD8PRNlqw7g42mDuDmfZ6olaZwjjnLbK1SB5wNqYP0aKdcmBqTuoXCW3LF0VRNlqQzFtGKZcmcmjSf8UZ9nqShNM8nxZOSwUGiUwyXSla0ksWRoVME7iFGNZ14VCowLGIzdqXklkqdVmqmESr8SZSWWpvVBhSuyaE73yV7kwtWcKjNeJM/Jli+yVbyWzJF20WjtTwI8xRXQCSmHGJbDUHjXBHOr5+fqlBaaMmyxQdKMphBlD5pXPd09PNxdYN3dvgDJR/6wQBhC6eM+aR4hhwEEodTCQ4ZIWrXgWF9soh4FMLWlxPkgA51UxDKhbfqUUhIyzG8UwoGDfDaUgpAuo3auFgTSJGqf4D1LwRSnMPQjmllISZk2/qISBRWPeKCU38J9BEcw3UIuoASRYyZpCmH+wFr1kS0LN6bU6GGDMb5MtCbymuwC0Ghiw988uv3wBltwogwFHl7Irl+CiV6pgfkFblI25gucNr6pgHqEtyq5VALuOXWhDDQy0QRSnCV7zfFQEA32Iscci9RtcdqwGBuZlAl1kygKmM6G+qIGBL4//ypSFr0pdq4GB3yrPmbIwaxboQg3MX3CDfmTKgovW7qAwk16jn1dxaXDPXPvKgREFd26BMB3kmDnlmnFxXjN+B0PL7Gc4n8yYMxwGeQvStMZ/eDO1NxjMlH4YAVfhyVqpXzejqC+eve4e9fRXXwV//HEfeTaOl7iEwTTzvyQqcYoc79ck9O3iMeM0/9T+JlPN2B3CVxjM2hO0nA/D8czpcMyXNMy3tFtj94wvJV6Z73F5NgwtHMMXexAFXpmT0p4ZytRSIHZdwGfGaCLHLac346WP0cQJCQJ7s904k1txad44I868JMVzeb/VOACuv7rOURF3SQDsAIqJ783+gOu54tajyJsJXDM7TzEpwaKIItcsmsdnl5ioEhhoRfMZ4UwTlPD/IqikKjGAd0ByvGiWpioGIPxRaxvh1gXhsruy6Ix49etRUIM4FLC1eV3BPk45AkTy/nIrAKwFXkUvtvfWpcJAVpqzM+ZYgMXdYFp3uj+z1+1yqpIgSBSAttK0FyS6E4RCOnt3H59vU44uAM1h0oAiVYErwgeXoAdGTXIEW2XJBprALLv5Nn55esk9ADCWR1ughe1K2W92CN8eKjr4vaiAEdpsRBN0g2J/h+f3nCNYpAjWpq2PP4glHKYm4X1W9qWBxpuTeQ1AlihiFd5ndeEplsUEzgEmaaC/wDsu0MQHMaETShvkCZw4G0dswHts4kgCfuuzOy8VBp6ejZ8b8EooEdSNLo3Hfy9PUcFXad4CDz0DZQDtRK63fTcjmhwHJ+UWKEcz1O/XHOncieDbQxTjc1ZlGgH4amA+JWfdnYjGRGXa56IbzehK24bzODJurZql3WuSt2jslZ3W9eO3d5i2sxhkX00mRWWkaWcDVeMV+WYVB1lnXVlqkI8hfKkWquxi+5Zmnly2MF1ZSnb4wtBGTjHmp8sD1i1AKnNnEzMOMkKuuGWHyFK154zUtJ94dYE0OYn3Ssnb2SiI6w7mpVydxI0msUsTxagHXWTJ50m+WU6WEwCsHpyMzl1kZ873LCRLzd5muqaDzqlULRI3Wo4ENKY2kINo1GhWdLyhngegTcW8QDruoVtFuoE8i7pq9O3QGcFbmVPIg3XQxdnAV6fVapz/jBOaS66KZvm2bt9Vp0Omaga/Ov8q+bCkdA8ZdS6zCdwV1dUNn+fyNc/ZgPo1u7+lA339BT0TsFoa//l58+v57+N7EC98//p8e/cTaie3+h+3b0BQBBcr+QAAAABJRU5ErkJggg==;" vertex="1" parent="1">
          <mxGeometry x="190" y="360.38" width="22.53" height="27.17" as="geometry" />
        </mxCell>
        <mxCell id="SwZNiAvCX6HAkOTveVuw-347" value="" style="shape=image;verticalLabelPosition=bottom;labelBackgroundColor=default;verticalAlign=top;aspect=fixed;imageAspect=0;image=data:image/png,iVBORw0KGgoAAAANSUhEUgAAAMUAAACYCAMAAABj9t3rAAARnXpUWHRSYXcgcHJvZmlsZSB0eXBlIGV4aWYAAHja7ZtZchs9EoTfcYo5AoACUMBxsEbMDeb481U3JWuzf9nSw0yERYukm42tlqxMgHL7P/8+7l/8lNqSS1lraaV4flJLLXbeVH//9Os5+HQ9Xz8zPz4Lr6+79tQockl4lfu/tTzuf7oenju4Xzrv8ouO6nx8MF5/0NKj//qmo3i/iM3I3q+nGT06knh/EB4d9HtZvrSqL5cw9v36aH+bgV9nT6m+nva7/yvWW5lxJMYtQTzPIo8JiP1mJ503ynOQFu/L9r5e1586wyAf2en5pzGjY1NNH970yivP78LHXnRvvZXi4xZ5Y+Ty/PrhdRfymw/kefz4cuRUH+/i6+tEQbtn9Mb69nvOqudaM6voqWDq8ljUs9XsDfcNhrChq2NqxSu/mS70ejQelaEmobD89IPHDC1E3HVCCiv0cMK+XmeYTDHF7aLyJsYZ5bpYRWOLE48FSfYIJ6o0WfgxyrzcniQ+zyVcwzY/3TVaZeQVuDUGOgs0+e2H+90G51gqhGC2nPmyFfOK0YzNNMxz9sxteCSch1HzZeCnx9sf86vgwWxWthRpGHbcXYwcfiCBXI4Wbsy83jkYdD06wEQMnZlMEDyA14LkUILXGDUEDFlxUGfqUVIceCDkHBeTjEmk4JsabWiaaLhujTly2XEdMMMTWQo5V/FQx1kpZeJHUyWGepaccs4la6655V6kpJJLKVoMFLuKJqdZi6pWbdqr1FRzLVVrra32FpsAmrmVpq221npnzE7PndadG3ofcchII7tRho462uiT8Jlp5lmmzjrb7CsuWeDHKktXXW31HTahtNPOu2zddbfdD6F2xJ108ilHTz3t9GevPdz67vEbXgsPr8XLU3ajPnuNq6pPXQSDk2w+w2HRpYDH1VxAQEfzma8hpWieM5/5FsmKHJlkNp+tYB7Dg2mHmE948p2Lt0fNc1/ym9P0ym/xTz3nzHW/6bn3fvvIa8vK0Lw8dmehGdUL2cc9PY7ZZcd6Zt7peE1TEmPtGJzsXmbPzLkyXsDsLazU9jiNYp7X1pn1hL7WnCWfvdYYVcGowZ2YK+kOrVsVGXHXfuqQs0Mppy49u5a8EhHBlMaZBdzFxGNL5hJOa4oXj028FnsNd0fpb0d/O/rb0f9hR2DGvD4Ma8ykXYCNMgA/MKXPI7V5kXD43R0Y12PoNvJJC/3Q52oORJWko6y0Z6SS5zH3GC0dtSZnAOHwLYiV53Lvc/QNnqr2Nvec4OeUfUpcbilIfnou2rvI8IB8nFONBM4mgPXyp1L+85lGosFn1i3qR/PUBlvUbGfP4VbCODoLkLjPHEBuDmdZHdAzsdgEfU8zU/Qzui1+SJ9qbfaCaJ4VzYLB0WgxJW6QrZfpju5GJ4gQ2SHZaM+D6c8Hc58Z7TODuc+M9ndpf5f2d2l/l/Y/vLSEBgDP8+jltL56cdXQf2udNZwOlWaUn3Y95hCq0Op5oL79riPlcvws6xTX4dcJwXKyWNWJO+uK7Qyp66QRTy0IzCGqpaTad2p1BjmKhMnC2NVqXKAuur7Hro1ZDMpICtqZ+VK1eeVSr0l1hp5ebW5R1mYE3uUTR8ZMmvKGzx9Udgv7pGsJVnApVGcgVXqs3fazPvvqfrfB4xUpoadUPMbamO12Y3dcUspYuf/41PvH508f2yJz6agR7ij7usPn3e9lrmtpp+TMolb/ibG8/8BcT8Z6NpV72OrJUD83U4oJgZgrrABWU0adRoAijCiNKc3FkfBtR+SVkk1hEhlV4Ql7I02HMQRJqKoIRdEcmkzRHjOyTsoJJUGkFprVuxVFLSy8Yh+Z9aROiNmkCIxkSbK2b5AeRK8fu5UFJZuKRI3wrq3YZ6HBlhtrr9HTKUtiGkHqhLmEWbnLCyJ1HAvsKAXB52FR8C5Ep5Q2IvJX1vBlS1iTyJZZNJyJmrvSa5poHavmPUOvq7KUVuYO6LuWJA6/MYzt9YWU+ff06t5e+MRr3llgjIH0a8zqjnMHaFh6isXEuzvysY/lzsJBFpJmlnfMP558Z8MVU2e4SMoTB9BKQ4x1BVj0hCfRNIzYehY7rCehp4+ChfAaPbpzbWPVA5G1AESfEycI4Od1oL2R5qMQsYEZ7q6EYgyled22km44kJPDRR3xrppLmnBMTL+IFtZks0CQj2iktK6Y+uapToWs8pQOLhSz+8kAqcOPuiQ349VFGqR9kQdTPIy1H4AqX0am06w6SSuiGsTcYdEFtLtIWeqXd73oiD7n6S26SNG8VY7tPOemyaIco26NjXDiGVYcavGVmB1TkQhjsSJs7q5U4s3PXu8US7YfCzxKGnmDrKENlMXYONhXorkVt4TpMvLyU4LPZbLsoT6D+BrGwPBmcy2tg6s1Tp2JFhPpEGI5JArZHUgs6lrT0A75S2EZuYxdDEtIuwzAjI2mWMweZ8UiA3yJCI5JPUEcNCrG3uiJ3bID4T8dvb8KXvc70fur4HW/E72/Cl73Yj0K0hJeQJ4KbgWzp8kfdBUKsAUlxJCA2Owoam2wln7CEuKdIujmGnhAVcyqMxHW0xCPiZUwu+0lsdqTCareFcEIJJZJ0RSiepU9qcV2YAEbmfsu8t0MUguBoQeHIQFxUW8FGB2LVEt1h1GovSLVK1WWTrqZ1KC1RgdwS89pAucE+ibTdvYaw5aaMzZt8IT7SMF2872UUHNcDFxJAg/Wi+/AdHay34b08APPEgDkeyII0a0rxN1QqlgQLhBCXDVMv5vhKpIZc3v3lJTPyelBcgxTcmmSTemGEpHGYwwWg/DEW8U2MolYygDpTe/aFGNHZGjG0XEvMCblFGZJZMZmYcQeBSkcMuucYi6iDEkR8TiRRCIwEqDfO3K9VVIhJugXt+BJJTjyXsAGobO8ZY31OltFUbMKHBdJSEFcZ4uDJr3hFTdZAS0q5cpT9neJuQVfZVW4F2WUurHbtuwbE+SzTVvipUtC61NdwJQJxsXpqlKbrsMyC0k899pkPmtjiYtMO0zbDmeYH/mDrfp48SHl6P4cqvB0Bx0S/f9QDvKVTj8S0z0y0/LSGGu88scyk0ir1wAb3CDYjeJgL9us/YCRJEcelv1uPT97xcb+3qp47FTAaeqZpIULRkzymSEoqw6g1bK8JnGJjnoKMWf7FnBgGIBqHWC/4R0xRgqO1Fkm3OW4poWcgosXifABvB5Hg5nZLlDTuuzgyoYi3esZAx4A4+6DgF/BqFI0HpEUPCJKh5WVwoRTs/321HYvwDXpsLbxDgjxjrXC+IwjxrZaFBiMB1WayBxgcDNW+2AhGxYSye8KnYaUM4NqfMpICvkCc8lpmJ1KVuaTaQ9nL9VoWs/wo73q9jCqlQ4s/PIrDE0nE/WLYkzVoTLA5gjcVcqk7kVDpiaN6jFll4kVzGs7Y4RNNDD/gMEPJXGMSAwMgn+00IiGgM4BaY3r51LWo0IsBryOIioBiY8SJX+Q4Zu4qxluGNu0CKLeBMzCgivohY6BYcaealV0yAyGdfPC6AWtoTaRU9x6DGp2TAEvM3ah3tl9i1RKkcqqYSd01gSj7C7cX1/WL/dTcvUh83pZ3V7XL/eigL1Ikzfl62WqfVC5TM+4V4LmRfkiA37Ovl685pYp66u4AuSDeoBXb2uC+PCCiDqkExrvBrihD+EVkHoKFjGthpBqx7ZoVgLOA90srfYVTYnA41B5IOcAWiv2KU2HncAT5UgNX0fbRsCh2NCnbPKmv6wZQC0LL9TYgCHGIlE0+QoN7BkKLql3sdMr8YOCMoe3HqhDg/oB+UPoIC12ytWRRFwWJktcE/OEv+ZGflkcoBmgeqjQuFQEFebFmBX/T/HcJzRz3pNyXq49X5pg/pEpMVqzqRdgZFEAy0hwS3LFOC02nAqKLEMS35eA4YM6RK+ooz3AoO5Hw5ikfh3VQiZRr3AA/h0nMMdTxzFOV6yyEMB0i3ouF4aCSNttXwkgPfZ9EYp4iPBjgZgAD5G6QA5CjMh7EGtglX2E4nfSln6G1UqVeahTsJFE8Ash0uKEmVNlK567viFxFUg4DAkPFJjwR1cBNHlkMobIKGDo9gvszOpkLeY+8YasD1Qw8ouaZmdjQKwAQg2HzH0M5jqgh5cbpKxUR67bMZxtg+924felEZGOHYgE3gEqYDJ20LLgI8NyC/hdE/VrSocIpNybQz1YTfbDm3xLKAY/w9xWk21GmOdz9NR9TVz9yG/3NXH1g566X6d33sTLAE6qhRoZYep6AaElbDyPBSE1FH/xLqQzwiLbZ4SMdqgI5I7sUaN+6C0QOWk1KtLN9yT0OruTXJJiSQV2hE4SPx2sFI1TfSDmAxV/JGif1XSmiZzJww4+IwqKwO6LwkmlGEhugp2MayHtnKsvAQlhwjzASUyjm0onBinYJDM1Bz49I9U6NdQhJCvYUQZcgkwiLkl3RgM2SrJz2noxox5Bu3nFLyHmrzMZFBPZdpnep2t/rS7zt9WqcO2a2Lcb2vXO1cCkt7naaIWCS/inAAGCtxbj+qHS6wjQNRUrbGJnQtAQQoMq6M8s8YTiUJXEc+iAGoUQ4+Ja8y8pLoVFbGiDFS5GIdzPK1TcWBxqD3QSkGEslLDHc9LRxt5OZDakh7EBcurYpLlXRqCq/4I7wbMvxmc0LXXNdtIt0H2ZwP6OVMcCsyccerjww46p0A4WXravx1S5SBmNTqkKUyHIfaKhOwBk2c5qTC3aNxwqIuDaUYL02lfOrm8TyLv0c1+pri+Lq/tKdX1ZXN1vVFcUB9gKcdKNLkG0BAIEmhu2Uo46RG8HGi/QbyIAmu1o2YYYwL0ibXof3bqWOLHftWsHb67Qq3gZnzTQ6SGjISQiD2xfkzKxieIKu0RvoKyyzkpgwa3RqSNjeNtLGJhSgebVagqwrEb2Uvtbsy2tZhtbLB7vtT/Z4XRvL7DkVG27jqoCYczXN66G391XUKKNm6FZ4h0BmZt90wKC2pwFPQyM2CGcqREDXdpsy43ZgSXZNDT1BkIJe6GCUuC2FZIVQQxEDAkeDxWS7C8W+orlTUF/hPKfijL36zD7fJS5X4fZZ6NMm2P4QuRwv9jGZBgJSr/sCyexNKPLPKd1ru/3FXg1gGCYVsFz242wAcn3cNwB2RrLnPf+V2RaMxJtYd0YKaYKp2/pkjmpwJlZTLXtt2O4iUHUJuXorl7FzncIyL3tDFpddow5Xp89D38PblfejY6xnyfwGN5OzV9PAMx+P4V7BqYPrhlgo/M0Af+Ywrv1f2b57jPr/8zy3WfW/5nlu8+s/zPL/x9zP1TQFUpLss20m6zDWyAFheoZDlyzweJinvA7oy5A5NJRISWGKqiJVJC9CNSIXkNuw3v6m+OXdwcsr89fPjh9ca+OX54OX+zohc7+4eTlxbnLqg7bbFTLsV2wblXB9hKARMSmVzXGgmFTX7ZJtnZQVErEYMF2uArKHgRo68D84efgtZ2JBKMJvLUjETsbtD2OGsbl9HAoEjjdX6LZrIpvIZM39FBQsrMmYJtFhs52bxXfB36IlOmvJco/dkOufU83qKPv6caL+55ubBv6W7ohsr+nG2TW93QD0fqebta1Mf4N3Vww8h3deHXf080q7nu6sTj6RTcZxT5BktqFzKZUIyzUaEbqo7Zu2yhiX7g2dWJ/nUFHzSTegzz/8x6t/WXJvTNqWNVtI+M4iCiAgjQBkxTiGpDyJrjr7L1q7+gKwByoY/hpOAauBEpAVMYLtiW5jFIWV1tEcsNTGisC/VEoNUqb8Ml6jKdslOdGRDQ15G4sc0GdQi0I+Y1QvxjjHO6uEmn1+9SaAnN9fwxqZOUnI8euGoO8e3wjAsV0i6PXLd2fN33d0v1509ct3Z83fd3S/XnT1y3dVwz8sqX7ioFftnRfMfDLlu4rBn7Z0n0tDH+0dF8xMGzJNsyuzTHnW0bELTsjuVjTrrpRD+Tbtv3U1uNKe++MsFwNBZSgGl5KFXIywLomjKe2AD+KFVyqK0Ubnmzv198OrXvD4fpLnub+C0G38KFof6muAAABhGlDQ1BJQ0MgcHJvZmlsZQAAeJx9kT1Iw0AcxV9bpSIV0XYQcchQdbEgKuKoVShChVArtOpgcukXNGlIUlwcBdeCgx+LVQcXZ10dXAVB8APEXXBSdJES/5cUWsR4cNyPd/ced+8Af73MVLNjHFA1y0gl4kImuyoEXxFEGP3ow6jETH1OFJPwHF/38PH1LsazvM/9OXqUnMkAn0A8y3TDIt4gnt60dM77xBFWlBTic+Ixgy5I/Mh12eU3zgWH/TwzYqRT88QRYqHQxnIbs6KhEk8RRxVVo3x/xmWF8xZntVxlzXvyF4Zy2soy12kOIYFFLEGEABlVlFCGhRitGikmUrQf9/APOn6RXDK5SmDkWEAFKiTHD/4Hv7s185MTblIoDnS+2PbHMBDcBRo12/4+tu3GCRB4Bq60lr9SB2Y+Sa+1tOgR0LsNXFy3NHkPuNwBBp50yZAcKUDTn88D72f0TVkgfAt0r7m9Nfdx+gCkqavkDXBwCIwUKHvd491d7b39e6bZ3w9wqnKmCg8uAwAADRppVFh0WE1MOmNvbS5hZG9iZS54bXAAAAAAADw/eHBhY2tldCBiZWdpbj0i77u/IiBpZD0iVzVNME1wQ2VoaUh6cmVTek5UY3prYzlkIj8+Cjx4OnhtcG1ldGEgeG1sbnM6eD0iYWRvYmU6bnM6bWV0YS8iIHg6eG1wdGs9IlhNUCBDb3JlIDQuNC4wLUV4aXYyIj4KIDxyZGY6UkRGIHhtbG5zOnJkZj0iaHR0cDovL3d3dy53My5vcmcvMTk5OS8wMi8yMi1yZGYtc3ludGF4LW5zIyI+CiAgPHJkZjpEZXNjcmlwdGlvbiByZGY6YWJvdXQ9IiIKICAgIHhtbG5zOnhtcE1NPSJodHRwOi8vbnMuYWRvYmUuY29tL3hhcC8xLjAvbW0vIgogICAgeG1sbnM6c3RFdnQ9Imh0dHA6Ly9ucy5hZG9iZS5jb20veGFwLzEuMC9zVHlwZS9SZXNvdXJjZUV2ZW50IyIKICAgIHhtbG5zOmRjPSJodHRwOi8vcHVybC5vcmcvZGMvZWxlbWVudHMvMS4xLyIKICAgIHhtbG5zOkdJTVA9Imh0dHA6Ly93d3cuZ2ltcC5vcmcveG1wLyIKICAgIHhtbG5zOnRpZmY9Imh0dHA6Ly9ucy5hZG9iZS5jb20vdGlmZi8xLjAvIgogICAgeG1sbnM6eG1wPSJodHRwOi8vbnMuYWRvYmUuY29tL3hhcC8xLjAvIgogICB4bXBNTTpEb2N1bWVudElEPSJnaW1wOmRvY2lkOmdpbXA6YWJjNjc0OWQtZDg2NC00ODU2LTg3MjYtOWE4N2JmZTEzNmUzIgogICB4bXBNTTpJbnN0YW5jZUlEPSJ4bXAuaWlkOjUwMjVmODYzLTgzNTItNDM4Yy1hNjQ2LTIxMGM0YjliMzk2MiIKICAgeG1wTU06T3JpZ2luYWxEb2N1bWVudElEPSJ4bXAuZGlkOjZkNGY2NGJjLTRmOGMtNDUxNC1hMTdkLWRmNzEyYTcwMWYxMCIKICAgZGM6Rm9ybWF0PSJpbWFnZS9wbmciCiAgIEdJTVA6QVBJPSIyLjAiCiAgIEdJTVA6UGxhdGZvcm09IkxpbnV4IgogICBHSU1QOlRpbWVTdGFtcD0iMTc1Mjk0OTA4MjY5NDMyNCIKICAgR0lNUDpWZXJzaW9uPSIyLjEwLjMwIgogICB0aWZmOk9yaWVudGF0aW9uPSIxIgogICB4bXA6Q3JlYXRvclRvb2w9IkdJTVAgMi4xMCI+CiAgIDx4bXBNTTpIaXN0b3J5PgogICAgPHJkZjpTZXE+CiAgICAgPHJkZjpsaQogICAgICBzdEV2dDphY3Rpb249InNhdmVkIgogICAgICBzdEV2dDpjaGFuZ2VkPSIvIgogICAgICBzdEV2dDppbnN0YW5jZUlEPSJ4bXAuaWlkOmMyOGE0NWZmLTA3YWEtNDgwNi04YmVjLWYyNmE0NjZjNWMwZSIKICAgICAgc3RFdnQ6c29mdHdhcmVBZ2VudD0iR2ltcCAyLjEwIChMaW51eCkiCiAgICAgIHN0RXZ0OndoZW49IjIwMjUtMDctMTlUMjA6MTg6MDIrMDI6MDAiLz4KICAgIDwvcmRmOlNlcT4KICAgPC94bXBNTTpIaXN0b3J5PgogIDwvcmRmOkRlc2NyaXB0aW9uPgogPC9yZGY6UkRGPgo8L3g6eG1wbWV0YT4KICAgICAgICAgICAgICAgICAgICAgICAgICAgICAgICAgICAgICAgICAgICAgICAgICAgICAgICAgICAgICAgICAgICAgICAgICAgICAgICAgICAgICAgICAgICAgICAgICAgIAogICAgICAgICAgICAgICAgICAgICAgICAgICAgICAgICAgICAgICAgICAgICAgICAgICAgICAgICAgICAgICAgICAgICAgICAgICAgICAgICAgICAgICAgICAgICAgICAgICAgCiAgICAgICAgICAgICAgICAgICAgICAgICAgICAgICAgICAgICAgICAgICAgICAgICAgICAgICAgICAgICAgICAgICAgICAgICAgICAgICAgICAgICAgICAgICAgICAgICAgICAKICAgICAgICAgICAgICAgICAgICAgICAgICAgICAgICAgICAgICAgICAgICAgICAgICAgICAgICAgICAgICAgICAgICAgICAgICAgICAgICAgICAgICAgICAgICAgICAgICAgIAogICAgICAgICAgICAgICAgICAgICAgICAgICAgICAgICAgICAgICAgICAgICAgICAgICAgICAgICAgICAgICAgICAgICAgICAgICAgICAgICAgICAgICAgICAgICAgICAgICAgCiAgICAgICAgICAgICAgICAgICAgICAgICAgICAgICAgICAgICAgICAgICAgICAgICAgICAgICAgICAgICAgICAgICAgICAgICAgICAgICAgICAgICAgICAgICAgICAgICAgICAKICAgICAgICAgICAgICAgICAgICAgICAgICAgICAgICAgICAgICAgICAgICAgICAgICAgICAgICAgICAgICAgICAgICAgICAgICAgICAgICAgICAgICAgICAgICAgICAgICAgIAogICAgICAgICAgICAgICAgICAgICAgICAgICAgICAgICAgICAgICAgICAgICAgICAgICAgICAgICAgICAgICAgICAgICAgICAgICAgICAgICAgICAgICAgICAgICAgICAgICAgCiAgICAgICAgICAgICAgICAgICAgICAgICAgICAgICAgICAgICAgICAgICAgICAgICAgICAgICAgICAgICAgICAgICAgICAgICAgICAgICAgICAgICAgICAgICAgICAgICAgICAKICAgICAgICAgICAgICAgICAgICAgICAgICAgICAgICAgICAgICAgICAgICAgICAgICAgICAgICAgICAgICAgICAgICAgICAgICAgICAgICAgICAgICAgICAgICAgICAgICAgIAogICAgICAgICAgICAgICAgICAgICAgICAgICAgICAgICAgICAgICAgICAgICAgICAgICAgICAgICAgICAgICAgICAgICAgICAgICAgICAgICAgICAgICAgICAgICAgICAgICAgCiAgICAgICAgICAgICAgICAgICAgICAgICAgICAgICAgICAgICAgICAgICAgICAgICAgICAgICAgICAgICAgICAgICAgICAgICAgICAgICAgICAgICAgICAgICAgICAgICAgICAKICAgICAgICAgICAgICAgICAgICAgICAgICAgICAgICAgICAgICAgICAgICAgICAgICAgICAgICAgICAgICAgICAgICAgICAgICAgICAgICAgICAgICAgICAgICAgICAgICAgIAogICAgICAgICAgICAgICAgICAgICAgICAgICAgICAgICAgICAgICAgICAgICAgICAgICAgICAgICAgICAgICAgICAgICAgICAgICAgICAgICAgICAgICAgICAgICAgICAgICAgCiAgICAgICAgICAgICAgICAgICAgICAgICAgICAgICAgICAgICAgICAgICAgICAgICAgICAgICAgICAgICAgICAgICAgICAgICAgICAgICAgICAgICAgICAgICAgICAgICAgICAKICAgICAgICAgICAgICAgICAgICAgICAgICAgICAgICAgICAgICAgICAgICAgICAgICAgICAgICAgICAgICAgICAgICAgICAgICAgICAgICAgICAgICAgICAgICAgICAgICAgIAogICAgICAgICAgICAgICAgICAgICAgICAgICAgICAgICAgICAgICAgICAgICAgICAgICAgICAgICAgICAgICAgICAgICAgICAgICAgICAgICAgICAgICAgICAgICAgICAgICAgCiAgICAgICAgICAgICAgICAgICAgICAgICAgICAgICAgICAgICAgICAgICAgICAgICAgICAgICAgICAgICAgICAgICAgICAgICAgICAgICAgICAgICAgICAgICAgICAgICAgICAKICAgICAgICAgICAgICAgICAgICAgICAgICAgICAgICAgICAgICAgICAgICAgICAgICAgICAgICAgICAgICAgICAgICAgICAgICAgICAgICAgICAgICAgICAgICAgICAgICAgIAogICAgICAgICAgICAgICAgICAgICAgICAgICAgICAgICAgICAgICAgICAgICAgICAgICAgICAgICAgICAgICAgICAgICAgICAgICAgICAgICAgICAgICAgICAgICAgICAgICAgCiAgICAgICAgICAgICAgICAgICAgICAgICAgIAo8P3hwYWNrZXQgZW5kPSJ3Ij8+cntUpQAAAHtQTFRF////AAAAmpqaXFxcGxsb6+vrZ2dn5+fnYWFh4uLira2ttra28vLy29vbsLCw+fn50tLSg4ODo6OjT09PCAgIvb29bGxslJSUVlZWnp6egICALS0txsbGysrKNzc3enp6PT09ICAgRUVFJycni4uLSUlJExMTOzs7HBwccJkdhwAAAAFiS0dEAIgFHUgAAAAJcEhZcwAACxMAAAsTAQCanBgAAAAHdElNRQfpBxMSEgKES6JqAAAEMElEQVR42u3c63aiMBAAYKOiUEEQC2LF4oXaff8n3NruHkXIDWcIQzN/67F8QpLJJGE0smHDhg0bnURerM9TWnFwY6dqODKa8RbeEG+MbFzmA0B8hf+DWJBGsMOPghGPxRWxpK7YXRUpdQW79rfv5BX7L8UrG0LDII9gL1XFOZ1RiQlfMaOT9/l8hUtHMbcKq7AKq7AKq7AKq7AKq7AKq7AKq7CKfir8eDJl7HIqA7oKz71b/lgSVRQPteqIoMLfNZYWaSnCpqp0TE2xayz05rQUJadeHVJSeNwFZ0qKQrgcRUQR8pdAtnQUCV/xQUdRCtajwC4sxFbMBAoPCBGk2IpMoIDKQzKtXrunipyxJbIilaz8A8SFsU9kxQq9dW+vXxUY62lPIAhfNxEAHvXGIIpC9762ykBc3I42uN/qhKeIeAiYgsOH9uPZLjPnjXtzCESif2fbKfxmBMxk7zaNXCHP9YImRAGC2LTot9tWDwIsROU2J9iVHOf0gACqSFWa3Bq/qrac3n049WEQUaue+6kK57743ix5dhdAhtHos6oou6k2+44DJhg1bOftRgEb9dwm6ZciVymA1ufC634pXOZrXYzWhKUrha+yJ7RpErnpkyJWKOPumxKC1z4prl3yVPKZc+sSdkeKSKH3j5tTzEl/FP9mb4FqAqXZvrtRhPdHPHRL2Ju+KJbyanTAnQUf+6I4yR+PD/G5kB4o7lZtMv3qkMKFdKIoH89w1UPlEJ5hhXztbyxUbPugqD4tqU4vqzh+d6HIpGV12fm6vXmF83hkVr1Kp3q4qAPF5vGaaonIQfWQrUHFUVbNVTgAHKMrHO18+6DRy8pTFxBFKEk6U9lPW6qcJYyQFS9MvdbXlIg4SiciU2TFTvw7xbJJw0TrED2SIpKkzpxDyolwmqrbvp9WpLXGqpZw326lWryj1gYld5s79yn+tyrVCBAVsWQBTtLrhOonngtExVncgQgGtPP17zqv7cBT7CX/QDCDu3YKnu7xcxzFTDwmzYWX5QmROu37OYUvKVOIh+X1nmlFgKQYS36mC+gbDQokxUU8subAL2YIURS5pCbgIrwkA16RiZM1BxjB31LxjMKRdOZb8Hd9eAiKjST/P4IrVggKSUk4YvABr0gEk1CV8gxg+35Csa4+sv5DOAgI3t7p9gqPmQgHWLEyoiiBFcxMwCpMvQsvAVUcDCkySEXATMUcUFEYU2wAFcYQjTsYdBRRniyW27JI3cnOnKJpS4WGImT9CPc5RV/eRegPQrEdhIINQ7EfhGI2CEWtfdNUxPTHC1Zf+NcZu53+hJl9g8hhFVZhFVZhFVbxexQOX5H5cyLhRHwF0RiO4g95RVJbIKIYEcrqrokCiUcdkd7vFSIbnmD/K5nYIi62d/w8fTeNI1lEZYUmpunIHjezeXk8phUv+a288xc3r2gxE2+JxwAAAABJRU5ErkJggg==;" vertex="1" parent="1">
          <mxGeometry x="60" y="210" width="41.47" height="32" as="geometry" />
        </mxCell>
      </root>
    </mxGraphModel>
  </diagram>
</mxfile>
